<svg width="693" height="689" viewBox="0 0 693 689" fill="none" xmlns="http://www.w3.org/2000/svg">
<path d="M659.893 633.786C673.205 633.786 684 644.581 684 657.893C684 671.205 673.205 682 659.893 682H33.1071C19.7933 682 9 671.205 9 657.893C9 644.581 19.7933 633.786 33.1071 633.786H659.893ZM129.536 248.071C169.478 248.071 201.857 280.451 201.857 320.393V513.25C201.857 553.191 169.478 585.571 129.536 585.571H81.3214C41.3793 585.571 9 553.191 9 513.25V320.393C9 280.451 41.3793 248.071 81.3214 248.071H129.536ZM370.607 7C410.548 7 442.929 39.3793 442.929 79.3214V513.25C442.929 550.698 414.468 581.493 377.998 585.195L370.607 585.571H322.393C282.451 585.571 250.071 553.191 250.071 513.25V79.3214C250.071 39.3793 282.451 7 322.393 7H370.607ZM611.679 103.429C651.619 103.429 684 135.808 684 175.75V513.25C684 553.191 651.619 585.571 611.679 585.571H563.464C523.524 585.571 491.143 553.191 491.143 513.25V175.75C491.143 135.808 523.524 103.429 563.464 103.429H611.679ZM81.3214 296.286C68.0075 296.286 57.2143 307.079 57.2143 320.393V513.25C57.2143 526.562 68.0075 537.357 81.3214 537.357H129.536C142.85 537.357 153.643 526.562 153.643 513.25V320.393C153.643 307.079 142.85 296.286 129.536 296.286H81.3214ZM322.393 55.2143C309.079 55.2143 298.286 66.0075 298.286 79.3214V513.25C298.286 526.562 309.079 537.357 322.393 537.357H370.607L375.458 536.885C386.45 534.643 394.714 524.903 394.714 513.25V79.3214C394.714 66.0075 383.919 55.2143 370.607 55.2143H322.393ZM563.464 151.643C550.152 151.643 539.357 162.436 539.357 175.75V513.25C539.357 526.562 550.152 537.357 563.464 537.357H611.679C624.991 537.357 635.786 526.562 635.786 513.25V175.75C635.786 162.436 624.991 151.643 611.679 151.643H563.464Z" fill="#E07A5F" stroke="#2C2C2C" stroke-width="4" stroke-linecap="round" stroke-linejoin="round"/>
</svg>
