<svg width="524" height="693" viewBox="0 0 524 693" fill="none" xmlns="http://www.w3.org/2000/svg">
<path d="M451.75 9C486.681 9 515 37.3319 515 72.2812V620.719C515 655.667 486.681 684 451.75 684H109.146C53.8367 684 9 639.142 9 583.805V109.195C9 53.8588 53.8367 9 109.146 9H451.75ZM472.833 511.542C466.23 513.883 459.154 515.25 451.75 515.25H109.146C77.1249 515.25 51.1667 541.221 51.1667 573.258V583.805C51.1667 615.842 77.1249 641.812 109.146 641.812H451.75C463.392 641.812 472.833 632.367 472.833 620.719V511.542ZM109.146 51.1875C77.1249 51.1875 51.1667 77.1585 51.1667 109.195V491.604C67.5332 479.947 87.5278 473.062 109.146 473.062H451.75C463.392 473.062 472.833 463.617 472.833 451.969V72.2812C472.833 60.6316 463.392 51.1875 451.75 51.1875H109.146ZM369.103 190.563C373.683 179.86 386.075 174.87 396.777 179.439C407.475 184.02 412.463 196.419 407.897 207.125C395.462 236.191 371.17 262.125 337.892 262.125C317.373 262.122 300.287 252.267 287.283 237.9C274.283 252.256 257.221 262.12 236.716 262.125C216.192 262.125 199.074 252.273 186.067 237.9C173.063 252.256 156.008 262.125 135.5 262.125C123.856 262.125 114.417 252.681 114.417 241.031C114.417 229.382 123.856 219.938 135.5 219.938C144.458 219.938 157.392 212.34 166.713 190.563L168.154 187.761C171.954 181.6 178.726 177.75 186.108 177.75C194.543 177.753 202.184 182.804 205.503 190.563C214.824 212.335 227.759 219.938 236.716 219.938C245.675 219.928 258.614 212.331 267.929 190.563L269.371 187.761C273.17 181.609 279.912 177.756 287.283 177.75C295.721 177.75 303.357 182.802 306.68 190.563C315.999 212.335 328.935 219.933 337.892 219.938C346.848 219.938 359.785 212.337 369.103 190.563Z" fill="#E07A5F" stroke="#2C2C2C" stroke-width="4" stroke-linecap="round" stroke-linejoin="round"/>
</svg>
