<svg width="689" height="742" viewBox="0 0 689 742" fill="none" xmlns="http://www.w3.org/2000/svg">
<path d="M399.257 12.193C444.901 0.780066 489.138 35.3569 489.143 82.4173V249.712H609.679C649.619 249.712 681.995 282.105 682 322.056V659.656C682 699.614 649.619 732 609.679 732H79.3214C39.3793 732 7 699.614 7 659.656V166.818C7.00338 133.631 29.5749 104.65 61.7589 96.5942L399.257 12.193ZM410.983 59.0093L73.4832 143.41C62.7536 146.093 55.2177 155.756 55.2143 166.818V659.656C55.2143 672.977 66.0075 683.771 79.3214 683.771H151.643V514.97L152.114 510.123C154.36 499.131 164.099 490.855 175.75 490.855H320.393L325.243 491.328C336.231 493.57 344.497 503.317 344.5 514.97V683.771H440.929V82.4173C440.924 66.7356 426.194 55.2103 410.983 59.0093ZM199.857 683.771H296.286V539.084H199.857V683.771ZM489.143 683.771H609.679C622.991 683.771 633.786 672.977 633.786 659.656V322.056C633.781 308.74 622.991 297.941 609.679 297.941H489.143V683.771ZM320.393 346.17C333.704 346.17 344.496 356.969 344.5 370.283C344.5 383.603 333.707 394.397 320.393 394.397H175.75C162.436 394.397 151.643 383.603 151.643 370.283C151.647 356.969 162.439 346.17 175.75 346.17H320.393ZM320.393 201.483C333.704 201.483 344.496 212.282 344.5 225.597C344.5 238.916 333.707 249.712 320.393 249.712H175.75C162.436 249.712 151.643 238.916 151.643 225.597C151.647 212.282 162.439 201.483 175.75 201.483H320.393Z" fill="#E07A5F" stroke="#2C2C2C" stroke-width="4" stroke-linecap="round" stroke-linejoin="round"/>
</svg>
