<svg width="693" height="529" viewBox="0 0 693 529" fill="none" xmlns="http://www.w3.org/2000/svg">
<path d="M415.342 10.7517C426.572 13.8375 433.195 25.5115 430.133 36.8059L303.571 503.376C300.501 514.671 288.893 521.33 277.657 518.246C266.425 515.163 259.803 503.49 262.867 492.195L389.43 25.6222C392.501 14.3329 404.111 7.67238 415.342 10.7517ZM478.294 102.086C485.968 93.2788 499.274 92.3902 508.04 100.098L676.79 248.552L679.84 251.866C682.511 255.488 684 259.911 684 264.5C684 270.612 681.363 276.419 676.79 280.448L508.04 428.902L504.581 431.388C496.05 436.274 485.014 434.628 478.294 426.913C471.582 419.198 471.4 407.966 477.349 400.115L480.272 397.006L630.894 264.5L480.272 131.992C471.51 124.279 470.624 110.899 478.294 102.086ZM188.42 97.6124C196.949 92.7274 207.988 94.3744 214.705 102.086C221.42 109.801 221.597 121.033 215.653 128.886L212.728 131.992L62.1052 264.5L212.728 397.006C221.491 404.721 222.372 418.099 214.705 426.913C207.034 435.727 193.726 436.614 184.96 428.902L16.2098 280.448L13.161 277.135C10.4884 273.509 9 269.089 9 264.5C9.00211 258.388 11.6355 252.578 16.2098 248.552L184.96 100.098L188.42 97.6124Z" fill="#E07A5F" stroke="#2C2C2C" stroke-width="4" stroke-linecap="round" stroke-linejoin="round"/>
</svg>
