<svg width="697" height="693" viewBox="0 0 697 693" fill="none" xmlns="http://www.w3.org/2000/svg">
<path d="M469.036 9C508.976 9 541.357 41.3792 541.357 81.3213V153.643H613.679C653.619 153.643 686 186.022 686 225.964V611.679C686 651.619 653.619 684 613.679 684H227.964C188.022 684 155.643 651.619 155.643 611.679V539.357H83.3214C43.3793 539.357 11 506.977 11 467.036V81.3213C11 41.3792 43.3793 9 83.3214 9H469.036ZM541.357 467.036C541.357 506.977 508.976 539.357 469.036 539.357H203.857V611.679C203.857 624.991 214.65 635.786 227.964 635.786H613.679C626.991 635.786 637.786 624.991 637.786 611.679V225.964C637.786 212.65 626.991 201.857 613.679 201.857H541.357V467.036ZM83.3214 57.2142C70.0075 57.2142 59.2143 68.007 59.2143 81.3213V467.036C59.2143 480.348 70.0075 491.143 83.3214 491.143H469.036C482.348 491.143 493.143 480.348 493.143 467.036V81.3213C493.143 68.007 482.348 57.2142 469.036 57.2142H83.3214Z" fill="#E07A5F" stroke="#2C2C2C" stroke-width="4" stroke-linecap="round" stroke-linejoin="round"/>
</svg>
