<svg width="701" height="693" viewBox="0 0 701 693" fill="none" xmlns="http://www.w3.org/2000/svg">
<path d="M663.893 491.143C677.205 491.143 688 501.938 688 515.25V611.679C688 651.619 655.619 684 615.679 684H85.3214C45.3793 684 13 651.619 13 611.679V515.25C13 501.938 23.7933 491.143 37.1071 491.143C50.421 491.143 61.2143 501.938 61.2143 515.25V611.679C61.2143 624.991 72.0075 635.786 85.3214 635.786H615.679C628.991 635.786 639.786 624.991 639.786 611.679V515.25C639.786 501.938 650.581 491.143 663.893 491.143ZM350.5 9C363.812 9 374.607 19.7933 374.607 33.1071V451.872L525.325 282.279C534.168 272.332 549.413 271.416 559.364 280.254C569.311 289.096 570.227 304.341 561.389 314.293L368.532 531.257L364.718 534.695C360.625 537.689 355.659 539.357 350.5 539.357C343.614 539.357 337.041 536.406 332.467 531.257L139.61 314.293L136.784 310.339C131.163 300.634 132.926 287.992 141.634 280.254C150.34 272.525 163.077 272.269 172.051 278.981L175.676 282.279L326.393 451.872V33.1071C326.393 19.7933 337.186 9 350.5 9Z" fill="#E07A5F" stroke="#2C2C2C" stroke-width="4" stroke-linecap="round" stroke-linejoin="round"/>
</svg>
