<svg width="695" height="520" viewBox="0 0 695 520" fill="none" xmlns="http://www.w3.org/2000/svg">
<path d="M347.492 7C517.461 7 627.78 146.394 670.689 212.192L674.064 217.792C688.645 244.17 688.645 275.829 674.064 302.209L670.689 307.809C627.78 373.605 517.461 513 347.492 513C188.133 513 81.2057 390.472 33.1148 320.943L24.2976 307.809C5.23413 278.57 5.23413 241.428 24.2976 212.192L33.1148 199.056C81.2057 129.528 188.133 7 347.492 7ZM347.492 49.1667C210.259 49.1667 114.42 155.848 68.2195 222.486L59.6496 235.211C49.7105 250.453 49.7105 269.547 59.6496 284.79L68.2195 297.511C114.42 364.152 210.259 470.833 347.492 470.833C493.859 470.833 593.145 349.486 635.336 284.79L638.589 278.899C644.188 266.835 644.188 253.165 638.589 241.099L635.336 235.211C593.145 170.515 493.859 49.1667 347.492 49.1667ZM347.492 133.5C417.399 133.5 474.067 190.136 474.067 260C474.067 329.866 417.399 386.5 347.492 386.5C277.587 386.5 220.917 329.866 220.917 260C220.917 190.136 277.587 133.5 347.492 133.5ZM347.492 175.667C300.888 175.667 263.109 213.424 263.109 260C263.109 306.577 300.888 344.333 347.492 344.333C394.097 344.333 431.875 306.577 431.875 260C431.875 213.424 394.097 175.667 347.492 175.667Z" fill="#E07A5F" stroke="#2C2C2C" stroke-width="4" stroke-linecap="round" stroke-linejoin="round"/>
</svg>
