<svg width="702" height="702" viewBox="0 0 702 702" fill="none" xmlns="http://www.w3.org/2000/svg">
<path d="M227.481 36.4697C401.027 -31.6891 597.045 53.6495 665.398 227.169C733.786 400.796 648.454 597.004 474.832 665.403C301.215 733.784 105.009 648.491 36.6094 474.879C-31.7172 301.418 53.3581 105.358 226.642 36.7788C226.801 36.715 226.968 36.6657 227.128 36.6023C227.243 36.5566 227.366 36.5145 227.481 36.4697ZM289.529 555.931C263.103 575.377 240.772 596.276 223.283 617.537C270.159 639.992 322.779 650.12 375.929 645.604C361.067 635.485 346.367 622.664 332.088 607.816C317.656 592.809 303.37 575.391 289.529 555.931ZM493.88 465.728C465.518 471.648 436.163 480.364 406.553 492.026C376.929 503.697 349.494 517.351 324.707 532.376C337.182 549.84 349.82 565.38 362.493 578.558C382.844 599.72 402.285 614.188 419.414 621.913C436.438 629.588 449.499 629.968 459.319 626.113C469.148 622.243 478.524 613.043 485.748 595.796C493.007 578.463 497.364 554.609 497.813 525.261C498.093 506.978 496.663 487.007 493.88 465.728ZM63.0813 283.959C49.8789 340.425 53.0812 401.33 75.9417 459.365C98.7901 517.369 137.948 564.077 186.072 596.371C207.099 569.602 234.251 543.916 266.239 520.618C245.52 486.641 226.364 448.147 209.981 406.553C193.592 364.95 181.325 323.713 173.301 284.71C134.039 289.479 96.6993 289.193 63.0813 283.959ZM626.194 458.836C598.892 455.211 568.291 455.161 535.686 458.967C538.835 482.636 540.337 505.109 540.016 525.922C539.704 546.54 537.632 565.964 533.654 583.509C575.627 550.559 607.219 507.241 626.194 458.836ZM400.543 204.851C373.11 221.584 343.036 236.615 310.919 249.266C278.793 261.92 246.545 271.434 215.063 277.904C222.547 313.708 233.926 352.02 249.313 391.085C264.691 430.122 282.489 465.841 301.417 497.108C328.854 480.373 358.968 465.389 391.085 452.736C423.202 440.087 455.427 430.524 486.897 424.057C479.417 388.274 468.071 350.004 452.694 310.962C437.302 271.899 419.486 236.139 400.543 204.851ZM515.846 105.59C494.821 132.354 467.705 158.045 435.723 181.339C456.454 215.337 475.633 253.842 492.024 295.449C508.406 337.042 520.639 378.264 528.663 417.251C567.916 412.477 605.264 412.771 638.878 418.002C652.07 361.546 648.961 300.657 626.108 242.637C603.241 184.597 564.015 137.881 515.846 105.59ZM168.262 118.539C126.337 151.47 94.734 194.761 75.7652 243.123C103.058 246.753 133.637 246.834 166.229 243.035C163.079 219.357 161.667 196.856 161.987 176.036C162.304 155.455 164.292 136.057 168.262 118.539ZM282.591 80.0898C265.551 72.4068 252.465 72.0692 242.641 75.9354C232.821 79.8106 223.477 88.9738 216.256 106.208C209.001 123.536 204.644 147.357 204.192 176.699C203.911 194.974 205.297 214.957 208.081 236.229C236.448 230.314 265.836 221.686 295.452 210.021C325.061 198.357 352.433 184.601 377.21 169.583C364.743 152.137 352.175 136.568 339.512 123.4C319.167 102.244 299.717 87.8139 282.591 80.0898ZM478.724 84.4207C431.854 61.9805 379.215 51.8836 326.077 56.4014C340.931 66.5078 355.646 79.3051 369.919 94.1433C384.346 109.149 398.638 126.567 412.476 146.028C438.905 126.579 461.233 105.688 478.724 84.4207Z" fill="#E07A5F" stroke="#2C2C2C" stroke-width="4" stroke-linecap="round" stroke-linejoin="round"/>
</svg>
