<svg width="695" height="695" viewBox="0 0 695 695" fill="none" xmlns="http://www.w3.org/2000/svg">
<path d="M347.5 10C533.894 10 685 161.104 685 347.5C685 533.894 533.894 685 347.5 685C161.104 685 10 533.894 10 347.5C10 161.104 161.104 10 347.5 10ZM347.5 55C185.957 55 55 185.957 55 347.5C55 509.046 185.957 640 347.5 640C509.046 640 640 509.046 640 347.5C640 185.957 509.046 55 347.5 55ZM347.5 482.5C366.139 482.5 381.25 497.611 381.25 516.25C381.25 534.889 366.139 550 347.5 550C328.861 550 313.75 534.889 313.75 516.25C313.75 497.611 328.861 482.5 347.5 482.5ZM347.5 167.5C409.631 167.5 460 217.868 460 280C460 319.962 439.156 355.029 407.836 374.968L401.464 378.743C392.099 383.873 383.757 390.093 377.997 396.807C372.336 403.408 370 409.42 370 415V426.25C370 438.675 359.925 448.75 347.5 448.75C335.074 448.75 325 438.675 325 426.25V415C325 395.727 333.343 379.697 343.809 367.493C354.173 355.411 367.417 346.087 379.846 339.282L387.401 334.448C404.168 322.141 415 302.324 415 280C415 242.721 384.778 212.5 347.5 212.5C310.221 212.5 280 242.721 280 280C280 292.426 269.926 302.5 257.5 302.5C245.074 302.5 235 292.426 235 280C235 217.868 285.368 167.5 347.5 167.5Z" fill="#E07A5F" stroke="#2C2C2C" stroke-width="4" stroke-linecap="round" stroke-linejoin="round"/>
</svg>
