<svg width="703" height="938" viewBox="0 0 703 938" fill="none" xmlns="http://www.w3.org/2000/svg">
<path d="M492.125 862.75C507.656 862.75 520.25 875.344 520.25 890.875C520.25 906.406 507.656 919 492.125 919H210.875C195.342 919 182.75 906.406 182.75 890.875C182.75 875.344 195.342 862.75 210.875 862.75H492.125ZM351.5 19C537.896 19 689 170.104 689 356.5C689 454.249 647.42 542.311 581.062 603.91L567.438 615.886C538.632 639.899 520.25 670.111 520.25 700.975V778.375C520.25 793.906 507.656 806.5 492.125 806.5H210.875C195.342 806.5 182.75 793.906 182.75 778.375V700.975C182.749 673.964 168.659 647.464 145.836 625.172L135.564 615.886C61.3327 554.022 14 460.77 14 356.5C14 170.104 165.104 19 351.5 19ZM351.5 75.25C196.17 75.25 70.25 201.17 70.25 356.5C70.25 443.367 109.596 521.02 171.544 572.658L184.837 584.633C215.013 614.052 238.999 654.057 239 700.975V750.25H323.375V536.894L190.99 404.511L187.364 400.116C180.155 389.199 181.379 374.351 190.99 364.739C200.601 355.129 215.449 353.905 226.366 361.114L230.76 364.739L351.5 485.481L472.241 364.739L476.634 361.114C487.552 353.905 502.402 355.129 512.009 364.739C521.623 374.351 522.843 389.199 515.638 400.116L512.009 404.511L379.625 536.894V750.25H464V700.975C464 647.346 495.359 602.74 531.455 572.658L542.773 562.656C598.145 511.261 632.75 437.942 632.75 356.5C632.75 201.17 506.829 75.25 351.5 75.25Z" fill="#E07A5F" stroke="#2C2C2C" stroke-width="4" stroke-linecap="round" stroke-linejoin="round"/>
</svg>
