<svg width="488" height="697" viewBox="0 0 488 697" fill="none" xmlns="http://www.w3.org/2000/svg">
<path d="M397.818 333.562C408.725 329.27 421.05 334.602 425.351 345.494L468.138 454.042C502.515 541.239 459.63 639.807 372.361 674.157C287.831 707.417 192.636 668.235 155.518 586.489L152.118 578.453L109.33 469.908C105.033 459.005 110.404 446.69 121.312 442.396C132.217 438.107 144.542 443.44 148.843 454.33L191.631 562.875C217.412 628.272 291.367 660.433 356.814 634.673C422.26 608.914 454.403 535.016 428.624 469.615L385.837 361.07C381.54 350.176 386.915 337.859 397.818 333.562ZM197.312 230.07C208.22 225.777 220.545 231.144 224.842 242.044L302.665 439.414C306.949 450.308 301.587 462.632 290.684 466.926C279.777 471.21 267.452 465.844 263.151 454.949L185.37 257.58C181.075 246.682 186.408 234.367 197.312 230.07ZM123.842 19.8561C208.993 -8.771 302.576 34.0711 335.874 118.542L378.666 227.088C382.962 237.988 377.592 250.303 366.68 254.597C355.778 258.879 343.448 253.519 339.152 242.624L296.364 134.078C270.577 68.6893 196.625 36.5622 131.18 62.3215C65.7373 88.0863 33.5899 161.982 59.3689 227.377L102.157 335.923C106.454 346.823 101.083 359.14 90.1747 363.433C79.2681 367.722 66.9406 362.355 62.6444 351.461L19.8558 242.914C-14.5078 155.718 28.3712 57.1856 115.632 22.8389L123.842 19.8561Z" fill="#E07A5F" stroke="#2C2C2C" stroke-width="4" stroke-linecap="round" stroke-linejoin="round"/>
</svg>
