<svg width="701" height="701" viewBox="0 0 701 701" fill="none" xmlns="http://www.w3.org/2000/svg">
<path d="M540.344 13C551.992 13 561.438 22.4441 561.438 34.0938C561.438 45.7434 551.992 55.1875 540.344 55.1875H477.062V139.562H519.25C612.446 139.562 688 215.114 688 308.312V498.156C688 533.104 659.667 561.438 624.719 561.438H350.5V666.906C350.5 678.554 341.056 688 329.406 688C317.757 688 308.312 678.554 308.312 666.906V561.438H76.2812C74.0976 561.438 71.9397 561.324 69.8131 561.108C37.9024 557.868 13 530.923 13 498.156V308.312C13 215.114 88.5519 139.562 181.75 139.562H434.875V34.0938L435.288 29.8501C437.25 20.233 445.772 13 455.969 13H540.344ZM181.75 181.75C111.852 181.75 55.1875 238.414 55.1875 308.312V498.156C55.1875 509.804 64.6316 519.25 76.2812 519.25H287.219C298.868 519.25 308.312 509.804 308.312 498.156V308.312C308.312 238.414 251.648 181.75 181.75 181.75ZM293.316 181.75C328.367 212.672 350.5 257.897 350.5 308.312V498.156C350.5 505.56 349.17 512.648 346.833 519.25H624.719C636.367 519.25 645.812 509.804 645.812 498.156V308.312C645.812 238.414 589.15 181.75 519.25 181.75H477.062V371.594C477.062 383.242 467.617 392.688 455.969 392.688C444.321 392.688 434.875 383.242 434.875 371.594V181.75H293.316ZM245.031 434.875C256.681 434.875 266.125 444.321 266.125 455.969C266.125 467.617 256.681 477.062 245.031 477.062H118.469C106.819 477.062 97.375 467.617 97.375 455.969C97.375 444.321 106.819 434.875 118.469 434.875H245.031Z" fill="#E07A5F" stroke="#2C2C2C" stroke-width="4" stroke-linecap="round" stroke-linejoin="round"/>
</svg>
