<svg width="697" height="918" viewBox="0 0 697 918" fill="none" xmlns="http://www.w3.org/2000/svg">
<path d="M348.5 9C535.992 9 686 167.154 686 359.738C686 493.891 603.267 630.668 525.378 730.635C485.874 781.339 446.431 824.049 416.889 854.064C402.106 869.088 389.771 880.997 381.074 889.17C376.732 893.248 373.284 896.403 370.91 898.563C369.734 899.632 368.801 900.465 368.165 901.033C367.844 901.32 367.569 901.539 367.394 901.691C367.31 901.77 367.226 901.815 367.175 901.854L367.124 901.91C357.821 910.117 344.429 911.197 334.108 905.043L329.878 901.967L329.823 901.854C329.774 901.815 329.689 901.77 329.603 901.691C329.43 901.539 329.153 901.32 328.834 901.033C328.198 900.465 327.268 899.632 326.088 898.563C323.714 896.403 320.269 893.248 315.926 889.17C307.231 880.997 294.895 869.088 280.11 854.064C250.568 824.049 211.125 781.339 171.62 730.635C93.7331 630.668 11.0011 493.891 11 359.738C11 167.154 161.005 9 348.5 9ZM348.5 65.2499C194.269 65.2499 67.25 195.976 67.25 359.738C67.2511 473.736 139.209 597.52 216.005 696.081C253.84 744.641 291.747 785.704 320.21 814.627C331.259 825.849 340.91 835.175 348.5 842.42C356.088 835.175 365.741 825.849 376.788 814.627C405.251 785.704 443.158 744.641 480.997 696.081C557.789 597.52 629.75 473.736 629.75 359.738C629.75 195.976 502.732 65.2499 348.5 65.2499ZM348.5 233.999C410.634 233.999 461 284.367 461 346.499C461 408.631 410.634 458.999 348.5 458.999C286.368 458.999 236 408.631 236 346.499C236 284.367 286.368 233.999 348.5 233.999ZM348.5 290.249C317.434 290.249 292.25 315.433 292.25 346.499C292.25 377.565 317.434 402.749 348.5 402.749C379.567 402.749 404.75 377.565 404.75 346.499C404.75 315.433 379.567 290.249 348.5 290.249Z" fill="#E07A5F" stroke="#2C2C2C" stroke-width="4" stroke-linecap="round" stroke-linejoin="round"/>
</svg>
