<svg width="705" height="773" viewBox="0 0 705 773" fill="none" xmlns="http://www.w3.org/2000/svg">
<path d="M412.53 32.7587C445.986 2.6654 500.95 14.328 518.132 57.9045L560.642 165.765C611.205 156.832 662.76 184.398 682.311 234.012C701.852 283.626 682.875 338.82 639.801 366.759L682.35 474.708C700.661 521.198 662.773 570.439 613.141 564.655L424.676 542.565L467.181 650.426C480.571 684.407 463.874 722.806 429.884 736.197L388.843 752.387C354.852 765.769 316.439 749.041 303.05 715.055L246.458 571.502L225.958 579.597C146.644 610.823 57.0188 571.828 25.7765 492.534C-5.4551 413.24 33.5063 323.633 112.818 292.399L225.613 248.006C228.994 246.675 232.005 244.489 234.356 241.72L406.158 39.3464L412.53 32.7587ZM349.435 533.782C345.826 533.359 342.134 533.83 338.754 535.162L287.502 555.312L344.094 698.909C348.558 710.24 361.361 715.818 372.693 711.356L413.734 695.21C425.055 690.743 430.595 677.939 426.14 666.616L375.017 536.754L349.435 533.782ZM128.968 333.433C72.3221 355.749 44.5066 419.748 66.8208 476.388C89.1377 533.028 153.153 560.872 209.808 538.561L312.353 498.129L231.557 293.002L128.968 333.433ZM477.091 74.0945C471.358 59.5725 453.051 55.6687 441.902 65.6981L439.75 67.8939L269.328 268.588L356.627 490.206L618.222 520.863C634.769 522.799 647.395 506.392 641.309 490.898L477.091 74.0945ZM577.397 208.35L623.046 324.262C643.616 306.399 651.818 276.947 641.265 250.159C630.711 223.373 604.621 207.39 577.397 208.35Z" fill="#E07A5F" stroke="#2C2C2C" stroke-width="4" stroke-linecap="round" stroke-linejoin="round"/>
</svg>
