<svg width="695" height="793" viewBox="0 0 695 793" fill="none" xmlns="http://www.w3.org/2000/svg">
<path d="M347.5 11C454.01 11 540.357 97.2971 540.357 203.75V300.125H612.679C652.619 300.125 685 332.486 685 372.406V709.719C685 749.637 652.619 782 612.679 782H82.3214C42.3793 782 10 749.637 10 709.719V372.406C10 332.486 42.3793 300.125 82.3214 300.125H154.643V203.75C154.643 97.2971 240.988 11 347.5 11ZM82.3214 348.312C69.0075 348.312 58.2143 359.1 58.2143 372.406V709.719C58.2143 723.023 69.0075 733.812 82.3214 733.812H612.679C625.991 733.812 636.786 723.023 636.786 709.719V372.406C636.786 359.1 625.991 348.312 612.679 348.312H82.3214ZM347.5 444.688C380.787 444.688 407.768 471.653 407.768 504.922C407.768 527.941 394.832 547.91 375.845 558.049L395.714 637.438H299.286L319.108 558.049C300.142 547.905 287.232 527.927 287.232 504.922C287.232 471.653 314.215 444.688 347.5 444.688ZM347.5 59.1875C267.616 59.1875 202.857 123.911 202.857 203.75V300.125H492.143V203.75C492.143 123.911 427.386 59.1875 347.5 59.1875Z" fill="#E07A5F" stroke="#2C2C2C" stroke-width="4" stroke-linecap="round" stroke-linejoin="round"/>
</svg>
