<svg width="703" height="703" viewBox="0 0 703 703" fill="none" xmlns="http://www.w3.org/2000/svg">
<path d="M520.25 399.714C560.191 399.714 592.571 432.095 592.571 472.036V616.679C592.571 656.619 560.191 689 520.25 689H86.3214C46.3793 689 14 656.619 14 616.679V472.036C14 432.095 46.3793 399.714 86.3214 399.714H520.25ZM86.3214 447.929C73.0075 447.929 62.2143 458.724 62.2143 472.036V616.679C62.2143 629.991 73.0075 640.786 86.3214 640.786H520.25C533.562 640.786 544.357 629.991 544.357 616.679V472.036C544.357 458.724 533.562 447.929 520.25 447.929H86.3214ZM425.75 510.786C430.986 498.554 445.156 492.85 457.393 498.071C469.625 503.308 475.329 517.478 470.107 529.714C455.889 562.934 428.113 592.571 390.062 592.571C366.601 592.567 347.065 581.304 332.196 564.887C317.33 581.294 297.822 592.567 274.376 592.571C250.908 592.571 231.335 581.313 216.462 564.887C201.594 581.294 182.092 592.571 158.643 592.571C145.329 592.571 134.536 581.776 134.536 568.464C134.536 555.152 145.329 544.357 158.643 544.357C168.886 544.357 183.675 535.674 194.333 510.786L195.98 507.584C200.325 500.545 208.069 496.143 216.51 496.143C226.153 496.148 234.891 501.919 238.686 510.786C249.344 535.669 264.134 544.357 274.376 544.357C284.619 544.348 299.414 535.664 310.066 510.786L311.714 507.584C316.056 500.554 323.765 496.148 332.196 496.143C341.843 496.143 350.576 501.919 354.374 510.786C365.029 535.669 379.821 544.352 390.062 544.357C400.303 544.357 415.095 535.669 425.75 510.786ZM616.679 14C656.619 14 689 46.3793 689 86.3214V230.964C689 270.906 656.619 303.286 616.679 303.286H86.3214C46.3793 303.286 14 270.906 14 230.964V86.3214C14 46.3793 46.3793 14 86.3214 14H616.679ZM86.3214 62.2143C73.0075 62.2143 62.2143 73.0075 62.2143 86.3214V230.964C62.2143 244.278 73.0075 255.071 86.3214 255.071H616.679C629.991 255.071 640.786 244.278 640.786 230.964V86.3214C640.786 73.0075 629.991 62.2143 616.679 62.2143H86.3214ZM531.788 120.787C538.171 111.568 550.36 107.779 561.073 112.359C573.31 117.596 578.965 131.763 573.739 144L567.804 156.242C552.452 184.17 527.039 206.853 493.742 206.857C470.271 206.857 450.749 195.555 435.875 179.124C421.001 195.555 401.479 206.857 378.008 206.857C354.547 206.854 335.012 195.591 320.142 179.172C305.276 195.578 285.768 206.851 262.322 206.857C238.855 206.857 219.281 195.598 204.409 179.172C189.54 195.578 170.039 206.857 146.589 206.857C133.275 206.857 122.482 196.064 122.482 182.75C122.482 169.436 133.275 158.643 146.589 158.643C156.832 158.643 171.621 149.959 182.279 125.072L183.927 121.87C188.271 114.829 196.015 110.429 204.456 110.429C214.1 110.432 222.838 116.205 226.633 125.072L230.776 133.641C240.888 151.991 253.356 158.643 262.322 158.643C272.565 158.632 287.361 149.949 298.012 125.072L299.66 121.87C304.002 114.839 311.712 110.435 320.142 110.429C329.79 110.429 338.522 116.202 342.319 125.072L346.509 133.641C356.616 151.979 369.045 158.638 378.008 158.643C388.249 158.643 403.041 149.957 413.696 125.072L415.345 121.87C419.689 114.826 427.433 110.429 435.875 110.429C445.523 110.429 454.254 116.202 458.054 125.072C468.709 149.957 483.501 158.643 493.742 158.643C503.983 158.638 518.775 149.955 529.43 125.072L531.788 120.787Z" fill="#E07A5F" stroke="#2C2C2C" stroke-width="4" stroke-linecap="round" stroke-linejoin="round"/>
</svg>
