<svg width="701" height="701" viewBox="0 0 701 701" fill="none" xmlns="http://www.w3.org/2000/svg">
<path d="M373.653 13C407.466 13 434.875 40.4105 434.875 74.2212C434.875 82.4212 440.68 91.2232 451.109 95.3563C454.003 96.503 456.876 97.6994 459.719 98.9406L463.55 100.3C472.481 102.824 481.028 100.574 486.124 95.4799C510.07 71.5634 548.878 71.5908 572.807 95.5209L605.477 128.192L609.683 132.847C629.321 156.917 627.929 192.443 605.477 214.874C599.664 220.688 597.584 231.003 602.06 241.241L605.646 249.893L607.413 253.559C611.982 261.666 619.601 266.124 626.777 266.125C660.591 266.125 688 293.535 688 327.346V373.653C688 407.466 660.591 434.875 626.777 434.875C619.601 434.875 611.987 439.334 607.413 447.443L605.646 451.109C604.494 453.999 603.3 456.88 602.06 459.719C597.58 469.962 599.655 480.302 605.477 486.124C629.414 510.066 629.414 548.87 605.477 572.807L572.807 605.477C548.87 629.414 510.066 629.414 486.124 605.477C481.032 600.385 472.481 598.141 463.55 600.659L459.719 602.06C456.893 603.292 454.024 604.46 451.147 605.604C440.718 609.738 434.883 618.534 434.875 626.739C434.875 660.561 407.436 688 373.615 688H327.388C293.564 688 266.125 660.561 266.125 626.739C266.117 619.555 261.661 611.932 253.559 607.375L249.893 605.604C246.993 604.456 244.09 603.262 241.241 602.018C230.992 597.554 220.684 599.668 214.874 605.477C192.443 627.929 156.917 629.321 132.847 609.683L128.192 605.477L95.5209 572.807C71.5908 548.878 71.5634 510.07 95.4799 486.124L97.4986 483.737C101.13 478.577 102.463 471.203 100.3 463.55L98.9406 459.719C97.6994 456.876 96.503 454.003 95.3563 451.109C91.2232 440.68 82.4212 434.875 74.2212 434.875C40.4105 434.875 13 407.466 13 373.653V327.346C13 293.535 40.4105 266.125 74.2212 266.125C82.42 266.124 91.1886 260.312 95.315 249.893L98.9406 241.241L100.3 237.41C102.462 229.753 101.134 222.377 97.4986 217.222L95.4799 214.874C71.5546 190.949 71.5546 152.117 95.4799 128.192L128.192 95.4799L132.847 91.2776C156.91 71.6482 192.442 73.0488 214.874 95.4799C220.687 101.292 230.99 103.411 241.241 98.9406C244.101 97.6931 246.982 96.4671 249.893 95.315C260.312 91.1886 266.124 82.42 266.125 74.2212C266.125 40.4105 293.535 13 327.346 13H373.653ZM327.346 55.1875C316.835 55.1875 308.312 63.7102 308.312 74.2212C308.312 102.638 289.049 125.226 265.425 134.578C262.967 135.55 260.508 136.531 258.091 137.585C234.741 147.768 205.113 145.456 185.005 125.349C178.485 118.829 168.432 117.986 161.027 122.877L158.061 125.349L125.349 158.061C117.899 165.511 117.899 177.554 125.349 185.005C144.197 203.854 147.412 231.076 139.357 253.642L137.585 258.091C136.531 260.508 135.55 262.967 134.578 265.425C125.226 289.049 102.638 308.312 74.2212 308.312C63.7102 308.312 55.1875 316.835 55.1875 327.346V373.653C55.1875 384.166 63.7102 392.688 74.2212 392.688C102.638 392.688 125.218 411.963 134.578 435.575C135.543 438.01 136.539 440.431 137.585 442.827C147.781 466.182 145.451 495.832 125.349 515.955C117.89 523.418 117.887 535.518 125.349 542.98L158.02 575.65L161.027 578.123C168.431 583.004 178.49 582.168 185.005 575.65C205.114 555.527 234.773 553.186 258.133 563.374C260.536 564.42 262.98 565.416 265.425 566.382L269.792 568.318C291.371 578.612 308.304 600.102 308.312 626.739C308.312 637.261 316.863 645.812 327.388 645.812H373.615C384.136 645.812 392.688 637.261 392.688 626.739C392.696 598.318 411.959 575.743 435.575 566.382C438.01 565.416 440.431 564.42 442.827 563.374L447.274 561.602C469.857 553.532 497.089 556.788 515.955 575.65C523.418 583.113 535.518 583.113 542.98 575.65L575.65 542.98C583.113 535.518 583.113 523.418 575.65 515.955C555.531 495.836 553.194 466.195 563.416 442.827C564.467 440.423 565.454 437.976 566.424 435.533L568.36 431.167C578.667 409.617 600.145 392.688 626.777 392.688C637.291 392.688 645.812 384.166 645.812 373.653V327.346C645.812 316.835 637.291 308.312 626.777 308.312C600.132 308.312 578.654 291.364 568.36 269.792L566.424 265.425L563.374 258.133C553.16 234.769 555.527 205.114 575.65 185.005C582.168 178.49 583.004 168.431 578.123 161.027L575.65 158.02L542.98 125.349C536.458 118.825 526.38 117.995 518.963 122.877L515.955 125.349C495.832 145.451 466.182 147.781 442.827 137.585L435.575 134.578C411.963 125.218 392.688 102.638 392.688 74.2212C392.688 63.7102 384.166 55.1875 373.653 55.1875H327.346ZM350.5 223.938C420.4 223.938 477.062 280.602 477.062 350.5C477.062 420.4 420.4 477.062 350.5 477.062C280.602 477.062 223.938 420.4 223.938 350.5C223.938 280.602 280.602 223.938 350.5 223.938ZM350.5 266.125C303.901 266.125 266.125 303.901 266.125 350.5C266.125 397.1 303.901 434.875 350.5 434.875C397.1 434.875 434.875 397.1 434.875 350.5C434.875 303.901 397.1 266.125 350.5 266.125Z" fill="#E07A5F" stroke="#2C2C2C" stroke-width="4" stroke-linecap="round" stroke-linejoin="round"/>
</svg>
