<svg width="707" height="710" viewBox="0 0 707 710" fill="none" xmlns="http://www.w3.org/2000/svg">
<path d="M150.498 603.227C175.412 603.227 195.609 623.434 195.609 648.361C195.609 673.288 175.412 693.494 150.498 693.494C125.584 693.494 105.387 673.288 105.387 648.361C105.387 623.434 125.584 603.227 150.498 603.227Z" fill="#E07A5F" stroke="#2C2C2C" stroke-width="4" stroke-linecap="round" stroke-linejoin="round"/>
<path fill-rule="evenodd" clip-rule="evenodd" d="M601.613 512.969C651.443 512.969 691.836 553.381 691.836 603.235C691.836 653.089 651.443 693.501 601.613 693.501C551.783 693.501 511.391 653.089 511.391 603.235C511.391 553.381 551.783 512.969 601.613 512.969ZM601.613 558.102C576.698 558.102 556.502 578.308 556.502 603.235C556.502 628.162 576.698 648.368 601.613 648.368C626.528 648.368 646.725 628.162 646.725 603.235C646.725 578.308 626.528 558.102 601.613 558.102Z" fill="#E07A5F" stroke="#2C2C2C" stroke-width="4" stroke-linecap="round" stroke-linejoin="round"/>
<path d="M285.833 16.5C298.288 16.5027 308.389 26.6053 308.389 39.0666V232.734L445.396 95.6595C454.207 86.8504 468.484 86.8504 477.29 95.6595C486.096 104.471 486.096 118.759 477.29 127.57L340.416 264.512H534.167L538.705 264.953C548.986 267.053 556.722 276.17 556.722 287.079C556.718 297.983 548.981 307.058 538.705 309.16L534.167 309.645H340.592L477.601 446.718L480.507 450.248C486.285 459.003 485.306 470.919 477.601 478.632C469.887 486.341 457.982 487.288 449.231 481.493L445.703 478.632L308.389 341.247V535.531C308.389 547.992 298.288 558.093 285.833 558.098C273.378 558.093 263.277 547.992 263.277 535.531V341.688L126.401 478.632C117.594 487.433 103.313 487.437 94.5061 478.632C85.7021 469.817 85.7044 455.533 94.5061 446.718L231.514 309.645H37.9405C25.4879 309.642 15.3879 299.537 15.3848 287.079C15.3848 274.617 25.4861 264.515 37.9405 264.512H231.69L94.8142 127.57L91.951 124.044C86.16 115.286 87.1096 103.375 94.8142 95.6595C102.52 87.9503 114.431 86.9727 123.185 92.7502L126.71 95.6595L263.277 232.293V39.0666C263.277 26.6053 273.378 16.5032 285.833 16.5Z" fill="#E07A5F" stroke="#2C2C2C" stroke-width="4" stroke-linecap="round" stroke-linejoin="round"/>
<path d="M646.725 106.766C671.64 106.766 691.836 126.973 691.836 151.899C691.836 176.825 671.64 197.032 646.725 197.032C621.81 197.032 601.613 176.825 601.613 151.899C601.613 126.973 621.81 106.766 646.725 106.766Z" fill="#E07A5F" stroke="#2C2C2C" stroke-width="4" stroke-linecap="round" stroke-linejoin="round"/>
</svg>
