<svg width="711" height="647" viewBox="0 0 711 647" fill="none" xmlns="http://www.w3.org/2000/svg">
<path d="M355.5 461.345C398.067 461.345 440.702 466.625 475.043 484.002C510.682 502.041 536.403 532.706 543.989 579.514L544.57 585.066C545.689 612.16 521.919 630.991 498.152 631H212.85C187.492 630.983 162.145 609.547 167.011 579.514C174.596 532.706 200.32 502.041 235.955 484.002C270.295 466.625 312.934 461.345 355.5 461.345ZM355.5 503.759C315.388 503.759 280.67 508.933 255.127 521.861C230.89 534.127 214.169 553.633 208.874 586.309C208.84 586.521 208.874 586.639 208.874 586.639C208.874 586.639 208.963 586.919 209.247 587.22C209.88 587.878 211.158 588.578 212.85 588.586H498.152C499.844 588.582 501.116 587.878 501.752 587.22C502.036 586.924 502.125 586.639 502.125 586.639V586.309C496.83 553.633 480.115 534.127 455.874 521.861C430.327 508.937 395.612 503.759 355.5 503.759ZM207.094 249.276C218.803 249.276 228.294 258.771 228.294 270.483C228.294 282.195 218.803 291.69 207.094 291.69C166.982 291.69 132.264 296.866 106.721 309.79C83.9948 321.292 67.8707 339.155 61.5859 368.276L60.4678 374.24C60.4343 374.452 60.4678 374.57 60.4678 374.57C60.4678 374.57 60.556 374.85 60.8405 375.152C61.474 375.809 62.7511 376.509 64.4429 376.517H207.094C218.803 376.517 228.294 386.014 228.294 397.724C228.294 409.435 218.803 418.931 207.094 418.931H64.4429C39.0854 418.914 13.7389 397.478 18.6045 367.445L20.2192 358.873C29.422 316.859 54.1363 288.847 87.5489 271.932C121.889 254.556 164.528 249.277 207.094 249.276ZM355.5 228.069C408.189 228.069 450.904 270.795 450.904 323.5C450.904 376.203 408.189 418.931 355.5 418.931C302.814 418.927 260.096 376.203 260.096 323.5C260.096 270.798 302.814 228.074 355.5 228.069ZM503.906 249.276C546.473 249.276 589.108 254.557 623.45 271.932C659.088 289.971 684.809 320.635 692.395 367.445C697.263 397.482 671.919 418.923 646.559 418.931H503.906C492.203 418.927 482.705 409.435 482.705 397.724C482.705 386.014 492.203 376.521 503.906 376.517H646.559C648.25 376.513 649.522 375.809 650.159 375.152C650.443 374.855 650.532 374.57 650.532 374.57V374.24C645.236 341.564 628.521 322.056 604.28 309.79C578.733 296.868 544.018 291.69 503.906 291.69C492.203 291.685 482.705 282.192 482.705 270.483C482.705 258.774 492.203 249.281 503.906 249.276ZM355.5 270.483C326.232 270.487 302.498 294.222 302.498 323.5C302.498 352.778 326.232 376.513 355.5 376.517C384.774 376.517 408.502 352.782 408.502 323.5C408.502 294.219 384.774 270.483 355.5 270.483ZM207.094 16C259.784 16 302.498 58.726 302.498 111.431C302.498 164.136 259.784 206.862 207.094 206.862C154.408 206.857 111.689 164.133 111.689 111.431C111.689 58.7289 154.408 16.0047 207.094 16ZM503.906 16C556.595 16 599.31 58.726 599.31 111.431C599.31 164.136 556.595 206.862 503.906 206.862C451.222 206.857 408.502 164.133 408.502 111.431C408.502 58.7289 451.222 16.0047 503.906 16ZM207.094 58.4138C177.826 58.4185 154.091 82.1532 154.091 111.431C154.091 140.709 177.826 164.444 207.094 164.448C236.366 164.448 260.096 140.712 260.096 111.431C260.096 82.1502 236.366 58.4138 207.094 58.4138ZM503.906 58.4138C474.636 58.4185 450.904 82.1532 450.904 111.431C450.904 140.709 474.636 164.444 503.906 164.448C533.181 164.448 556.909 140.712 556.909 111.431C556.909 82.1502 533.181 58.4138 503.906 58.4138Z" fill="#E07A5F" stroke="#2C2C2C" stroke-width="4" stroke-linecap="round" stroke-linejoin="round"/>
</svg>
