<svg width="715" height="721" viewBox="0 0 715 721" fill="none" xmlns="http://www.w3.org/2000/svg">
<path d="M357.5 409.143C436.489 409.143 513.656 419.329 574.771 451.418C637.432 484.325 681.71 539.593 694.262 624.616L694.972 632.642C696.129 672.306 661.587 701 624.968 701H90.0296C50.9882 700.995 14.2947 668.375 20.7403 624.616L23.4471 608.987C38.883 532.749 81.491 482.268 140.228 451.418C201.343 419.329 278.513 409.143 357.5 409.143ZM357.5 457.786C281.432 457.786 213.615 467.792 162.833 494.458C113.6 520.316 79.0735 562.421 68.8484 631.694C67.4653 641.072 75.3712 652.352 90.0296 652.357H624.968C637.811 652.357 645.47 643.708 646.244 635.254L646.151 631.694C635.924 562.416 601.401 520.316 552.167 494.458C501.382 467.796 433.566 457.786 357.5 457.786ZM357.5 20C451.501 20 527.706 96.2234 527.706 190.25C527.706 284.277 451.501 360.5 357.5 360.5C263.5 360.495 187.291 284.274 187.291 190.25C187.291 96.2263 263.5 20.0049 357.5 20ZM357.5 68.6429C290.359 68.6477 235.922 123.091 235.922 190.25C235.922 257.409 290.359 311.852 357.5 311.857C424.647 311.857 479.075 257.412 479.075 190.25C479.075 123.088 424.647 68.6429 357.5 68.6429Z" fill="#E07A5F" stroke="#2C2C2C" stroke-width="4" stroke-linecap="round" stroke-linejoin="round"/>
</svg>
