<svg width="707" height="757" viewBox="0 0 707 757" fill="none" xmlns="http://www.w3.org/2000/svg">
<path d="M112.429 17C157.35 17 194.988 47.7362 205.702 89.3H534.304C620.843 89.3 691 159.434 691 245.95C691 332.466 620.843 402.6 534.304 402.6H484.016L370.544 516.039C361.132 525.452 345.87 525.452 336.455 516.039L222.982 402.6H172.696C112.783 402.6 64.2143 451.157 64.2143 511.05C64.2143 570.943 112.783 619.5 172.696 619.5H501.296C512.014 577.937 549.65 547.2 594.571 547.2C647.829 547.2 691 590.358 691 643.6C691 696.842 647.829 740 594.571 740C549.65 740 512.014 709.263 501.296 667.7H172.696C86.1552 667.7 16 597.564 16 511.05C16 424.536 86.1552 354.4 172.696 354.4H222.982L336.455 240.96L340.222 237.854C349.58 231.677 362.309 232.725 370.544 240.96L484.016 354.4H534.304C594.215 354.4 642.786 305.845 642.786 245.95C642.786 186.055 594.215 137.5 534.304 137.5H205.702C194.988 179.064 157.35 209.8 112.429 209.8C59.1725 209.8 16 166.64 16 113.4C16 60.1597 59.1725 17 112.429 17ZM594.571 595.4C567.943 595.4 546.357 616.979 546.357 643.6C546.357 670.221 567.943 691.8 594.571 691.8C621.2 691.8 642.786 670.221 642.786 643.6C642.786 616.979 621.2 595.4 594.571 595.4ZM267.053 378.5L353.5 464.923L439.948 378.5L353.5 292.079L267.053 378.5ZM112.429 65.2C85.8008 65.2 64.2143 86.7801 64.2143 113.4C64.2143 140.02 85.8008 161.6 112.429 161.6C139.056 161.6 160.643 140.02 160.643 113.4C160.643 86.7801 139.056 65.2 112.429 65.2Z" fill="#E07A5F" stroke="#2C2C2C" stroke-width="4" stroke-linecap="round" stroke-linejoin="round"/>
</svg>
