<svg width="32" height="32" viewBox="0 0 969 855" fill="none" xmlns="http://www.w3.org/2000/svg">
<g clip-path="url(#clip0)">
<path d="M63.5 766V116H347.5C458.5 116 537.5 185 537.5 282C537.5 350 495.5 408 427.5 428C507.5 448 559.5 510 559.5 590C559.5 693 481.5 766 371.5 766H63.5ZM147.5 684H355.5C423.5 684 473.5 640 473.5 579C473.5 518 423.5 474 355.5 474H147.5V684ZM147.5 394H339.5C404.5 394 451.5 352 451.5 295C451.5 238 404.5 196 339.5 196H147.5V394Z" fill="#F2F1ED"/>
<path d="M750.5 208.5L769.967 391L860 342.333L787 408.033L969.5 427.5L787 446.967L860 512.667L769.967 464L750.5 646.5L731.033 464L641 512.667L714 446.967L531.5 427.5L714 408.033L641 342.333L731.033 391L750.5 208.5Z" fill="#CD7C5B"/>
</g>
<defs>
<clipPath id="clip0">
<rect width="969" height="855" fill="white"/>
</clipPath>
</defs>
</svg>
