<svg width="147" height="193" viewBox="0 0 147 193" fill="none" xmlns="http://www.w3.org/2000/svg">
<path d="M0 192.4V0H84.064C116.92 0 140.304 20.424 140.304 49.136C140.304 69.264 127.872 86.432 107.744 92.352C131.424 98.272 146.816 116.624 146.816 140.304C146.816 170.792 123.728 192.4 91.168 192.4H0ZM24.864 168.128H86.432C106.56 168.128 121.36 155.104 121.36 137.048C121.36 118.992 106.56 105.968 86.432 105.968H24.864V168.128ZM24.864 82.288H81.696C100.936 82.288 114.848 69.856 114.848 52.984C114.848 36.112 100.936 23.68 81.696 23.68H24.864V82.288Z" fill="#26251E"/>
</svg>
