<svg width="888" height="269" viewBox="0 0 888 269" fill="none" xmlns="http://www.w3.org/2000/svg">
<g clip-path="url(#clip0_197_288)">
<path d="M0 0C12.001 0 23.5106 4.74106 31.9966 13.1802C40.4826 21.6193 45.25 33.0653 45.25 45H0V0Z" fill="#141413"/>
<path d="M67.875 45C80.3704 45 90.5 34.9264 90.5 22.5C90.5 10.0736 80.3704 0 67.875 0C55.3796 0 45.25 10.0736 45.25 22.5C45.25 34.9264 55.3796 45 67.875 45Z" fill="#141413"/>
<path d="M90.5 45H181C181 33.0653 176.233 21.6193 167.747 13.1802C159.261 4.74106 147.751 0 135.75 0C123.749 0 112.239 4.74106 103.753 13.1802C95.2674 21.6193 90.5 33.0653 90.5 45Z" fill="#141413"/>
<path d="M226.25 0H181V45H226.25V0Z" fill="#141413"/>
<path d="M248.875 45C261.37 45 271.5 34.9264 271.5 22.5C271.5 10.0736 261.37 0 248.875 0C236.38 0 226.25 10.0736 226.25 22.5C226.25 34.9264 236.38 45 248.875 45Z" fill="#141413"/>
<path d="M271.5 45C271.5 33.0653 276.267 21.6193 284.753 13.1802C293.239 4.74106 304.749 0 316.75 0V45H271.5Z" fill="#141413"/>
<path d="M316.75 0C328.751 0 340.261 4.74106 348.747 13.1802C357.233 21.6193 362 33.0653 362 45H316.75V0Z" fill="#141413"/>
<path d="M407.25 0H362V45H407.25V0Z" fill="#141413"/>
<path d="M429.875 45C442.37 45 452.5 34.9264 452.5 22.5C452.5 10.0736 442.37 0 429.875 0C417.38 0 407.25 10.0736 407.25 22.5C407.25 34.9264 417.38 45 429.875 45Z" fill="#141413"/>
<path d="M497.75 0H452.5V45H497.75V0Z" fill="#141413"/>
<path d="M497.75 45C497.75 33.0653 502.517 21.6193 511.003 13.1802C519.489 4.74106 530.999 0 543 0V45H497.75Z" fill="#141413"/>
<path d="M0 45H90.5C90.5 56.9347 85.7326 68.3807 77.2466 76.8198C68.7606 85.2589 57.251 90 45.25 90C33.249 90 21.7394 85.2589 13.2534 76.8198C4.7674 68.3807 0 56.9347 0 45Z" fill="#141413"/>
<path d="M113.125 90C125.62 90 135.75 79.9264 135.75 67.5C135.75 55.0736 125.62 45 113.125 45C100.63 45 90.5 55.0736 90.5 67.5C90.5 79.9264 100.63 90 113.125 90Z" fill="#141413"/>
<path d="M181 45H135.75V90H181V45Z" fill="#141413"/>
<path d="M181 45H271.5C271.5 56.9347 266.733 68.3807 258.247 76.8198C249.761 85.2589 238.251 90 226.25 90C214.249 90 202.739 85.2589 194.253 76.8198C185.767 68.3807 181 56.9347 181 45Z" fill="#141413"/>
<path d="M316.75 45V90C304.749 90 293.239 85.2589 284.753 76.8198C276.267 68.3807 271.5 56.9347 271.5 45H316.75Z" fill="#141413"/>
<path d="M362 45H316.75V90H362V45Z" fill="#141413"/>
<path d="M407.25 45H362V90H407.25V45Z" fill="#141413"/>
<path d="M407.25 90H497.75C497.75 78.0653 492.983 66.6193 484.497 58.1802C476.011 49.7411 464.501 45 452.5 45C440.499 45 428.989 49.7411 420.503 58.1802C412.017 66.6193 407.25 78.0653 407.25 90Z" fill="#141413"/>
<path d="M543 45H497.75V90H543V45Z" fill="#141413"/>
<path d="M22.625 135C35.1204 135 45.25 124.926 45.25 112.5C45.25 100.074 35.1204 90 22.625 90C10.1296 90 0 100.074 0 112.5C0 124.926 10.1296 135 22.625 135Z" fill="#141413"/>
<path d="M45.25 90H135.75C135.75 101.935 130.983 113.381 122.497 121.82C114.011 130.259 102.501 135 90.5 135C78.499 135 66.9894 130.259 58.5034 121.82C50.0174 113.381 45.25 101.935 45.25 90Z" fill="#141413"/>
<path d="M135.75 135H226.25C226.25 123.065 221.483 111.619 212.997 103.18C204.511 94.7411 193.001 90 181 90C168.999 90 157.489 94.7411 149.003 103.18C140.517 111.619 135.75 123.065 135.75 135Z" fill="#141413"/>
<path d="M271.5 90H226.25V135H271.5V90Z" fill="#141413"/>
<path d="M272 135H226V180H272V135Z" fill="#141413"/>
<path d="M316.75 90H271.5V135H316.75V90Z" fill="#141413"/>
<path d="M316.75 135H271.5V180H316.75V135Z" fill="#141413"/>
<path d="M317 90C317 101.935 321.741 113.381 330.18 121.82C338.619 130.259 350.065 135 362 135V90H317Z" fill="#141413"/>
<path d="M362 90C373.935 90 385.506 94.6424 393.945 103.128C402.384 111.614 407.125 123.124 407.125 135.125L362 135L362 90Z" fill="#141413"/>
<path d="M407.25 135C407.25 146.935 402.483 158.381 393.997 166.82C385.511 175.259 374.001 180 362 180L362 135L407.25 135Z" fill="#141413"/>
<path d="M429.875 135C442.37 135 452.5 124.926 452.5 112.5C452.5 100.074 442.37 90 429.875 90C417.38 90 407.25 100.074 407.25 112.5C407.25 124.926 417.38 135 429.875 135Z" fill="#141413"/>
<path d="M452.5 90H543C543 101.935 538.233 113.381 529.747 121.82C521.261 130.259 509.751 135 497.75 135C485.749 135 474.239 130.259 465.753 121.82C457.267 113.381 452.5 101.935 452.5 90Z" fill="#141413"/>
<path d="M0 269C12.2 269 23.9002 264.259 32.5269 255.82C41.1536 247.381 46 235.935 46 224H0V269Z" fill="#141413"/>
<path d="M68 224C80.1503 224 90 234.074 90 246.5C90 258.926 80.1503 269 68 269C55.8497 269 46 258.926 46 246.5C46 234.074 55.8497 224 68 224Z" fill="#141413"/>
<path d="M90 224H182C182 235.935 177.154 247.381 168.527 255.82C159.9 264.259 148.2 269 136 269C123.8 269 112.1 264.259 103.473 255.82C94.8464 247.381 90 235.935 90 224Z" fill="#141413"/>
<path d="M226 269H182V224H226V269Z" fill="#141413"/>
<path d="M248.5 224C260.926 224 271 234.074 271 246.5C271 258.926 260.926 269 248.5 269C236.074 269 226 258.926 226 246.5C226 234.074 236.074 224 248.5 224Z" fill="#141413"/>
<path d="M272 224C272 235.935 276.741 247.381 285.18 255.82C293.619 264.259 305.065 269 317 269V224H272Z" fill="#141413"/>
<path d="M317 269C328.67 269 339.861 264.259 348.113 255.82C356.364 247.381 361 235.935 361 224H317V269Z" fill="#141413"/>
<path d="M407 269H361V224H407V269Z" fill="#141413"/>
<path d="M430 224C442.703 224 453 234.074 453 246.5C453 258.926 442.703 269 430 269C417.297 269 407 258.926 407 246.5C407 234.074 417.297 224 430 224Z" fill="#141413"/>
<path d="M497 269H453V224H497V269Z" fill="#141413"/>
<path d="M497 224C497 235.935 501.846 247.381 510.473 255.82C519.1 264.259 530.8 269 543 269V224H497Z" fill="#141413"/>
<path d="M0 224H90C90 212.065 85.2589 200.619 76.8198 192.18C68.3807 183.741 56.9347 179 45 179C33.0653 179 21.6193 183.741 13.1802 192.18C4.74106 200.619 0 212.065 0 224Z" fill="#141413"/>
<path d="M113 179C125.703 179 136 189.074 136 201.5C136 213.926 125.703 224 113 224C100.297 224 90 213.926 90 201.5C90 189.074 100.297 179 113 179Z" fill="#141413"/>
<path d="M182 224H136V179H182V224Z" fill="#141413"/>
<path d="M182 224H271C271 212.065 266.312 200.619 257.966 192.18C249.621 183.741 238.302 179 226.5 179C214.698 179 203.379 183.741 195.034 192.18C186.688 200.619 182 212.065 182 224Z" fill="#141413"/>
<path d="M317 224V179C305.065 179 293.619 183.741 285.18 192.18C276.741 200.619 272 212.065 272 224H317Z" fill="#141413"/>
<path d="M361 224H317V179H361V224Z" fill="#141413"/>
<path d="M407 224H361V179H407V224Z" fill="#141413"/>
<path d="M407 179H497C497 190.935 492.259 202.381 483.82 210.82C475.381 219.259 463.935 224 452 224C440.065 224 428.619 219.259 420.18 210.82C411.741 202.381 407 190.935 407 179Z" fill="#141413"/>
<path d="M543 224H497V179H543V224Z" fill="#141413"/>
<path d="M23 135C35.7025 135 46 145.074 46 157.5C46 169.926 35.7025 180 23 180C10.2975 180 0 169.926 0 157.5C0 145.074 10.2975 135 23 135Z" fill="#141413"/>
<path d="M46 180H136C136 168.065 131.259 156.619 122.82 148.18C114.381 139.741 102.935 135 91 135C79.0653 135 67.6193 139.741 59.1802 148.18C50.7411 156.619 46 168.065 46 180Z" fill="#141413"/>
<path d="M136 135H226C226 146.935 221.259 158.381 212.82 166.82C204.381 175.259 192.935 180 181 180C169.065 180 157.619 175.259 149.18 166.82C140.741 158.381 136 146.935 136 135Z" fill="#141413"/>
<path d="M362 135C350.065 135 338.619 139.741 330.18 148.18C321.741 156.619 317 168.065 317 180L362 180L362 135Z" fill="#141413"/>
<path d="M430 135C442.703 135 453 145.074 453 157.5C453 169.926 442.703 180 430 180C417.297 180 407 169.926 407 157.5C407 145.074 417.297 135 430 135Z" fill="#141413"/>
<path d="M453 180H543C543 168.065 538.259 156.619 529.82 148.18C521.381 139.741 509.935 135 498 135C486.065 135 474.619 139.741 466.18 148.18C457.741 156.619 453 168.065 453 180Z" fill="#141413"/>
<g filter="url(#filter0_f_197_288)">
<path d="M588.25 0H543V45H588.25V0Z" fill="#141413"/>
<path d="M633.25 0H588V45H633.25V0Z" fill="#141413"/>
<path d="M678.25 0H633V45H678.25V0Z" fill="#141413"/>
<path d="M723.25 0H678V45H723.25V0Z" fill="#141413"/>
<rect width="45" height="45" transform="translate(723)" fill="#141413"/>
<rect width="45" height="45" transform="translate(768)" fill="#141413"/>
<path d="M858.25 0H813V45H858.25V0Z" fill="#141413"/>
<rect width="45" height="45" transform="translate(858)" fill="#141413"/>
<rect width="45" height="45" transform="translate(723 269) rotate(-90)" fill="#141413"/>
<rect width="45" height="45" transform="translate(768 269) rotate(-90)" fill="#141413"/>
<path d="M588.25 224H543V269H588.25V224Z" fill="#141413"/>
<path d="M633.25 224H588V269H633.25V224Z" fill="#141413"/>
<path d="M678.25 224H633V269H678.25V224Z" fill="#141413"/>
<path d="M723.25 224H678V269H723.25V224Z" fill="#141413"/>
<rect width="45" height="45" transform="translate(858 269) rotate(-90)" fill="#141413"/>
<path d="M858.25 224H813V269H858.25V224Z" fill="#141413"/>
<g clip-path="url(#clip1_197_288)">
<path d="M615.491 170.666H577.477V99.8652H614.441C618.712 99.8652 622.387 100.535 625.468 101.873C628.618 103.212 631.033 105.219 632.714 107.896C634.464 110.503 635.339 113.673 635.339 117.407C635.339 121.422 634.184 124.874 631.873 127.763C629.563 130.58 625.993 132.377 621.162 133.152V133.786C626.623 134.702 630.718 136.709 633.449 139.809C636.179 142.838 637.544 146.608 637.544 151.116C637.544 155.202 636.634 158.725 634.814 161.683C632.993 164.572 630.438 166.791 627.148 168.341C623.857 169.89 619.972 170.666 615.491 170.666ZM584.933 137.167V163.797H614.861C619.832 163.797 623.577 162.705 626.098 160.521C628.688 158.337 629.983 154.956 629.983 150.377C629.983 145.797 628.688 142.451 626.098 140.338C623.508 138.224 619.762 137.167 614.861 137.167H584.933ZM584.933 106.734V130.721H613.181C618.012 130.721 621.652 129.735 624.102 127.763C626.623 125.79 627.883 122.796 627.883 118.781C627.883 114.624 626.728 111.595 624.418 109.693C622.107 107.72 618.572 106.734 613.811 106.734H584.933ZM652.605 164.748H643.363V155.977H652.605V164.748ZM692.87 170.666H665.462V163.797H692.87C698.891 163.797 703.862 162.776 707.782 160.732C711.703 158.619 714.643 155.449 716.603 151.222C718.564 146.995 719.544 141.676 719.544 135.265C719.544 128.784 718.564 123.465 716.603 119.309C714.643 115.082 711.703 111.947 707.782 109.904C703.862 107.791 698.891 106.734 692.87 106.734H665.462V99.8652H692.87C699.941 99.8652 706.032 101.309 711.143 104.198C716.324 107.086 720.314 111.172 723.114 116.456C725.985 121.739 727.42 128.009 727.42 135.265C727.42 142.521 725.985 148.791 723.114 154.075C720.314 159.359 716.324 163.444 711.143 166.333C706.032 169.222 699.941 170.666 692.87 170.666ZM669.873 170.666H662.312V99.8652H669.873V170.666ZM790.827 170.666H737.375V163.797H790.827V170.666ZM789.252 138.436H737.375V131.673H789.252V138.436ZM790.827 106.734H737.375V99.8652H790.827V106.734Z" fill="#141413"/>
<path d="M836.547 170.136H826.151L795.172 99.3359H803.993L831.191 162.528H831.716L858.81 99.3359H867.526L836.547 170.136Z" fill="#141413"/>
</g>
</g>
</g>
<defs>
<filter id="filter0_f_197_288" x="523" y="-20" width="445" height="309" filterUnits="userSpaceOnUse" color-interpolation-filters="sRGB">
<feFlood flood-opacity="0" result="BackgroundImageFix"/>
<feBlend mode="normal" in="SourceGraphic" in2="BackgroundImageFix" result="shape"/>
<feGaussianBlur stdDeviation="10" result="effect1_foregroundBlur_197_288"/>
</filter>
<clipPath id="clip0_197_288">
<rect width="888" height="269" fill="white"/>
</clipPath>
<clipPath id="clip1_197_288">
<rect width="291" height="72" fill="white" transform="translate(577 99)"/>
</clipPath>
</defs>
</svg>
