<svg width="944" height="404" viewBox="0 0 944 404" fill="none" xmlns="http://www.w3.org/2000/svg">
<g clip-path="url(#clip0_230_222)">
<path d="M217.4 403H0.200001V0.99999H211.4C235.8 0.99999 256.8 4.79999 274.4 12.4C292.4 20 306.2 31.4 315.8 46.6C325.8 61.4 330.8 79.4 330.8 100.6C330.8 123.4 324.2 143 311 159.4C297.8 175.4 277.4 185.6 249.8 190V193.6C281 198.8 304.4 210.2 320 227.8C335.6 245 343.4 266.4 343.4 292C343.4 315.2 338.2 335.2 327.8 352C317.4 368.4 302.8 381 284 389.8C265.2 398.6 243 403 217.4 403ZM42.8 212.8V364H213.8C242.2 364 263.6 357.8 278 345.4C292.8 333 300.2 313.8 300.2 287.8C300.2 261.8 292.8 242.8 278 230.8C263.2 218.8 241.8 212.8 213.8 212.8H42.8ZM42.8 40V176.2H204.2C231.8 176.2 252.6 170.6 266.6 159.4C281 148.2 288.2 131.2 288.2 108.4C288.2 84.8 281.6 67.6 268.4 56.8C255.2 45.6 235 40 207.8 40H42.8ZM415.448 403H378.648V366.6H415.448V403ZM485.402 403H438.602L620.402 0.99999H679.802L862.202 403H814.202L673.202 94L651.002 41.8H647.402L625.802 94L485.402 403ZM776.402 284.8H520.802V246.4H776.402V284.8ZM943.694 403H901.094V0.99999H943.694V403Z" fill="#D97757"/>
</g>
<defs>
<clipPath id="clip0_230_222">
<rect width="944" height="404" fill="white"/>
</clipPath>
</defs>
</svg>
