<svg width="400" height="400" viewBox="0 0 400 400" fill="none" xmlns="http://www.w3.org/2000/svg">
<path d="M125 87.5V37.5C125 34.1848 126.317 31.0054 128.661 28.6612C131.005 26.317 134.185 25 137.5 25C140.815 25 143.995 26.317 146.339 28.6612C148.683 31.0054 150 34.1848 150 37.5V87.5C150 90.8152 148.683 93.9946 146.339 96.3388C143.995 98.683 140.815 100 137.5 100C134.185 100 131.005 98.683 128.661 96.3388C126.317 93.9946 125 90.8152 125 87.5ZM187.5 100C190.815 100 193.995 98.683 196.339 96.3388C198.683 93.9946 200 90.8152 200 87.5V37.5C200 34.1848 198.683 31.0054 196.339 28.6612C193.995 26.317 190.815 25 187.5 25C184.185 25 181.005 26.317 178.661 28.6612C176.317 31.0054 175 34.1848 175 37.5V87.5C175 90.8152 176.317 93.9946 178.661 96.3388C181.005 98.683 184.185 100 187.5 100ZM237.5 100C240.815 100 243.995 98.683 246.339 96.3388C248.683 93.9946 250 90.8152 250 87.5V37.5C250 34.1848 248.683 31.0054 246.339 28.6612C243.995 26.317 240.815 25 237.5 25C234.185 25 231.005 26.317 228.661 28.6612C226.317 31.0054 225 34.1848 225 37.5V87.5C225 90.8152 226.317 93.9946 228.661 96.3388C231.005 98.683 234.185 100 237.5 100ZM387.5 187.5V200C387.495 215.899 381.431 231.199 370.542 242.784C359.654 254.37 344.759 261.37 328.891 262.359C320.364 286.478 305.847 308.033 286.703 325H325C328.315 325 331.495 326.317 333.839 328.661C336.183 331.005 337.5 334.185 337.5 337.5C337.5 340.815 336.183 343.995 333.839 346.339C331.495 348.683 328.315 350 325 350H50C46.6848 350 43.5054 348.683 41.1612 346.339C38.817 343.995 37.5 340.815 37.5 337.5C37.5 334.185 38.817 331.005 41.1612 328.661C43.5054 326.317 46.6848 325 50 325H88.3438C72.3953 310.91 59.6171 293.597 50.8528 274.205C42.0884 254.812 37.5374 233.781 37.5 212.5V137.5C37.5 134.185 38.817 131.005 41.1612 128.661C43.5054 126.317 46.6848 125 50 125H325C341.576 125 357.473 131.585 369.194 143.306C380.915 155.027 387.5 170.924 387.5 187.5ZM312.5 150H62.5V212.5C62.5482 235.97 69.1808 258.956 81.6438 278.843C94.1067 298.731 111.9 314.723 133 325H242C263.1 314.723 280.893 298.731 293.356 278.843C305.819 258.956 312.452 235.97 312.5 212.5V150ZM362.5 187.5C362.498 179.747 360.092 172.186 355.615 165.856C351.138 159.527 344.809 154.741 337.5 152.156V212.5C337.491 220.35 336.864 228.186 335.625 235.938C343.381 233.646 350.188 228.909 355.031 222.432C359.875 215.956 362.494 208.087 362.5 200V187.5Z" fill="#362921"/>
</svg>
