<svg width="400" height="400" viewBox="0 0 400 400" fill="none" xmlns="http://www.w3.org/2000/svg">
<path d="M108.707 146.166L45.2384 199.057L108.707 251.948C110.005 252.986 111.082 254.274 111.876 255.734C112.67 257.194 113.165 258.798 113.332 260.451C113.499 262.105 113.334 263.776 112.848 265.365C112.361 266.954 111.563 268.431 110.499 269.708C109.435 270.985 108.127 272.037 106.651 272.802C105.176 273.567 103.563 274.031 101.906 274.165C100.249 274.299 98.5825 274.102 97.003 273.585C95.4235 273.067 93.9631 272.24 92.7072 271.151L17.7072 208.651C16.2999 207.478 15.1677 206.01 14.3907 204.35C13.6137 202.691 13.2109 200.881 13.2109 199.049C13.2109 197.217 13.6137 195.407 14.3907 193.748C15.1677 192.089 16.2999 190.621 17.7072 189.448L92.7072 126.948C95.2558 124.826 98.5428 123.804 101.845 124.105C105.148 124.407 108.195 126.008 110.317 128.557C112.438 131.106 113.461 134.393 113.159 137.695C112.857 140.997 111.256 144.045 108.707 146.166ZM383.707 189.448L308.707 126.948C307.445 125.897 305.989 125.105 304.421 124.618C302.853 124.13 301.204 123.956 299.569 124.105C297.934 124.255 296.344 124.725 294.891 125.489C293.437 126.252 292.148 127.295 291.098 128.557C288.976 131.106 287.954 134.393 288.255 137.695C288.557 140.997 290.159 144.045 292.707 146.166L356.176 199.057L292.707 251.948C291.41 252.986 290.332 254.274 289.538 255.734C288.744 257.194 288.249 258.798 288.082 260.451C287.915 262.105 288.08 263.776 288.566 265.365C289.053 266.954 289.852 268.431 290.916 269.708C291.98 270.985 293.288 272.037 294.763 272.802C296.238 273.567 297.852 274.031 299.508 274.165C301.165 274.299 302.832 274.102 304.411 273.585C305.991 273.067 307.451 272.24 308.707 271.151L383.707 208.651C385.114 207.478 386.247 206.01 387.024 204.35C387.801 202.691 388.203 200.881 388.203 199.049C388.203 197.217 387.801 195.407 387.024 193.748C386.247 192.089 385.114 190.621 383.707 189.448ZM254.973 49.8071C253.43 49.2468 251.792 48.996 250.152 49.069C248.512 49.1419 246.902 49.5372 245.415 50.2322C243.928 50.9272 242.592 51.9083 241.484 53.1195C240.376 54.3308 239.517 55.7484 238.957 57.2914L138.957 332.291C138.395 333.835 138.142 335.475 138.214 337.117C138.285 338.759 138.68 340.37 139.375 341.859C140.07 343.348 141.052 344.685 142.265 345.794C143.477 346.903 144.897 347.763 146.442 348.323C147.811 348.809 149.254 349.058 150.707 349.057C153.274 349.057 155.779 348.267 157.881 346.794C159.984 345.32 161.581 343.236 162.457 340.823L262.457 65.8227C263.017 64.2797 263.268 62.6414 263.195 61.0014C263.122 59.3615 262.727 57.7519 262.032 56.2647C261.337 54.7775 260.356 53.4418 259.145 52.3338C257.934 51.2258 256.516 50.3672 254.973 49.8071Z" fill="#362921"/>
</svg>
