<svg width="400" height="400" viewBox="0 0 400 400" fill="none" xmlns="http://www.w3.org/2000/svg">
<path d="M393.371 139.271L205.871 39.2714C204.063 38.3084 202.045 37.8047 199.996 37.8047C197.947 37.8047 195.93 38.3084 194.121 39.2714L6.62109 139.271C4.62116 140.337 2.9486 141.927 1.78234 143.87C0.616083 145.813 0 148.036 0 150.303C0 152.569 0.616083 154.792 1.78234 156.735C2.9486 158.679 4.62116 160.268 6.62109 161.334L49.9961 184.474V260.131C49.9831 266.271 52.2428 272.198 56.3398 276.771C76.8086 299.568 122.668 337.803 199.996 337.803C225.636 338.015 251.084 333.37 274.996 324.115V375.303C274.996 378.618 276.313 381.797 278.657 384.141C281.001 386.486 284.181 387.803 287.496 387.803C290.811 387.803 293.991 386.486 296.335 384.141C298.679 381.797 299.996 378.618 299.996 375.303V312.037C316.296 302.627 331.026 290.729 343.652 276.771C347.749 272.198 350.009 266.271 349.996 260.131V184.474L393.371 161.334C395.371 160.268 397.044 158.679 398.21 156.735C399.376 154.792 399.992 152.569 399.992 150.303C399.992 148.036 399.376 145.813 398.21 143.87C397.044 141.927 395.371 140.337 393.371 139.271ZM199.996 312.803C132.387 312.803 92.6211 279.771 74.9961 260.131V197.803L194.121 261.334C195.93 262.297 197.947 262.801 199.996 262.801C202.045 262.801 204.063 262.297 205.871 261.334L274.996 224.475V296.881C255.309 306.068 230.496 312.803 199.996 312.803ZM324.996 260.068C317.503 268.383 309.119 275.85 299.996 282.334V211.131L324.996 197.803V260.068ZM293.746 186.146L293.402 185.943L205.902 139.271C202.983 137.78 199.595 137.496 196.468 138.479C193.34 139.462 190.725 141.634 189.184 144.527C187.643 147.421 187.3 150.804 188.229 153.947C189.159 157.091 191.286 159.744 194.152 161.334L267.184 200.303L199.996 236.131L39.0586 150.303L199.996 64.4745L360.934 150.303L293.746 186.146Z" fill="#362921"/>
</svg>
