<svg width="400" height="400" viewBox="0 0 400 400" fill="none" xmlns="http://www.w3.org/2000/svg">
<path d="M275.002 362.501C275.002 365.816 273.685 368.995 271.341 371.34C268.997 373.684 265.817 375.001 262.502 375.001H137.502C134.187 375.001 131.007 373.684 128.663 371.34C126.319 368.995 125.002 365.816 125.002 362.501C125.002 359.186 126.319 356.006 128.663 353.662C131.007 351.318 134.187 350.001 137.502 350.001H262.502C265.817 350.001 268.997 351.318 271.341 353.662C273.685 356.006 275.002 359.186 275.002 362.501ZM337.502 162.501C337.556 183.339 332.848 203.914 323.739 222.656C314.629 241.397 301.359 257.81 284.94 270.641C281.869 272.995 279.378 276.019 277.656 279.482C275.933 282.946 275.026 286.758 275.002 290.626V300.001C275.002 306.631 272.368 312.99 267.68 317.678C262.991 322.367 256.632 325.001 250.002 325.001H150.002C143.372 325.001 137.013 322.367 132.324 317.678C127.636 312.99 125.002 306.631 125.002 300.001V290.626C124.999 286.804 124.121 283.033 122.433 279.604C120.746 276.175 118.294 273.178 115.268 270.845C98.8896 258.089 85.6278 241.775 76.4861 223.137C67.3444 204.499 62.5624 184.026 62.502 163.266C62.0958 88.7977 122.283 26.7821 196.69 25.0008C215.023 24.559 233.26 27.7892 250.326 34.5011C267.393 41.2131 282.944 51.2712 296.065 64.0835C309.186 76.8958 319.612 92.2034 326.728 109.105C333.844 126.007 337.507 144.162 337.502 162.501ZM312.502 162.501C312.506 147.496 309.509 132.641 303.686 118.812C297.863 104.982 289.332 92.4574 278.596 81.9745C267.86 71.4915 255.135 63.2623 241.171 57.7713C227.206 52.2802 212.284 49.6382 197.283 50.0008C136.346 51.4383 87.1739 102.173 87.502 163.11C87.5591 180.088 91.477 196.831 98.9591 212.071C106.441 227.311 117.292 240.651 130.69 251.079C136.712 255.761 141.584 261.759 144.931 268.613C148.278 275.468 150.013 282.998 150.002 290.626V300.001H250.002V290.626C250.019 282.976 251.784 275.431 255.16 268.566C258.537 261.702 263.437 255.699 269.486 251.016C282.925 240.514 293.787 227.079 301.242 211.739C308.697 196.398 312.548 179.557 312.502 162.501ZM287.33 147.907C284.089 129.802 275.378 113.125 262.371 100.121C249.365 87.117 232.686 78.4101 214.58 75.1727C212.961 74.8998 211.304 74.9485 209.704 75.3159C208.104 75.6833 206.592 76.3623 205.254 77.3141C203.916 78.2659 202.779 79.4719 201.908 80.8631C201.036 82.2544 200.447 83.8038 200.174 85.4227C199.901 87.0417 199.95 88.6985 200.317 90.2987C200.684 91.8988 201.363 93.4109 202.315 94.7487C203.267 96.0864 204.473 97.2236 205.864 98.0953C207.256 98.967 208.805 99.5561 210.424 99.829C236.315 104.188 258.283 126.157 262.674 152.095C263.169 155.006 264.678 157.648 266.934 159.553C269.191 161.458 272.049 162.502 275.002 162.501C275.708 162.497 276.414 162.439 277.111 162.329C280.379 161.771 283.291 159.938 285.207 157.234C287.123 154.529 287.887 151.175 287.33 147.907Z" fill="#362921"/>
</svg>
