<svg width="400" height="400" viewBox="0 0 400 400" fill="none" xmlns="http://www.w3.org/2000/svg">
<path d="M355.172 114.641L285.36 44.8126C283.038 42.4906 280.282 40.6486 277.248 39.3918C274.215 38.1351 270.963 37.4883 267.68 37.4883C264.396 37.4883 261.145 38.1351 258.111 39.3918C255.078 40.6486 252.322 42.4906 250 44.8126L57.3283 237.5C54.9967 239.813 53.1481 242.567 51.8901 245.6C50.6321 248.634 49.9896 251.888 50.0001 255.172V325C50.0001 331.631 52.634 337.989 57.3225 342.678C62.0109 347.366 68.3697 350 75.0001 350H144.828C148.113 350.011 151.366 349.368 154.4 348.11C157.434 346.852 160.187 345.004 162.5 342.672L355.172 150C357.494 147.679 359.336 144.922 360.593 141.889C361.85 138.855 362.496 135.604 362.496 132.32C362.496 129.037 361.85 125.786 360.593 122.752C359.336 119.719 357.494 116.962 355.172 114.641ZM144.828 325H75.0001V255.172L212.5 117.672L282.328 187.5L144.828 325ZM300 169.813L230.172 100L267.672 62.5001L337.5 132.313L300 169.813Z" fill="#362921"/>
</svg>
