<svg width="1722" height="373" viewBox="0 0 1722 373" fill="none" xmlns="http://www.w3.org/2000/svg">
<g clip-path="url(#clip0_157_952)">
<g clip-path="url(#clip1_157_952)">
<path d="M42.92 296V271.728H105.08C116.92 271.728 126.195 268.275 132.904 261.368C139.613 254.264 142.968 245.779 142.968 235.912C142.968 229.203 141.488 223.184 138.528 217.856C135.568 212.331 131.227 207.989 125.504 204.832C119.979 201.675 113.467 200.096 105.968 200.096H42.92V175.824H101.824C111.691 175.824 119.485 173.259 125.208 168.128C131.128 162.8 134.088 155.203 134.088 145.336C134.088 135.469 131.029 127.971 124.912 122.84C118.795 117.512 110.704 114.848 100.64 114.848H42.92V90.576H101.232C114.651 90.576 125.8 93.0427 134.68 97.976C143.757 102.712 150.565 109.027 155.104 116.92C159.84 124.813 162.208 133.496 162.208 142.968C162.208 154.019 159.149 163.688 153.032 171.976C147.112 180.264 138.331 186.776 126.688 191.512L129.056 182.632C142.277 187.368 152.539 194.571 159.84 204.24C167.339 213.712 171.088 224.96 171.088 237.984C171.088 248.837 168.424 258.605 163.096 267.288C157.768 275.971 150.072 282.976 140.008 288.304C130.141 293.435 118.005 296 103.6 296H42.92ZM24.272 296V90.576H52.096V296H24.272ZM227.342 298.96C221.817 298.96 217.179 297.085 213.43 293.336C209.878 289.389 208.102 284.752 208.102 279.424C208.102 273.899 209.878 269.36 213.43 265.808C217.179 262.059 221.817 260.184 227.342 260.184C232.867 260.184 237.406 262.059 240.958 265.808C244.707 269.36 246.582 273.899 246.582 279.424C246.582 284.752 244.707 289.389 240.958 293.336C237.406 297.085 232.867 298.96 227.342 298.96ZM270.502 225.256L345.39 90.576H376.766L300.398 225.256H270.502ZM270.502 242.424V225.256L282.342 217.56H427.974V242.424H270.502ZM370.846 296V160.136H398.374V296H370.846ZM477.286 296V90.576H504.814V296H477.286ZM435.254 115.44V90.576H501.854V115.44H435.254ZM579.903 296V90.576H607.431V296H579.903ZM537.871 115.44V90.576H604.471V115.44H537.871Z" fill="#26261E"/>
<path d="M745 102L752.467 172L787 153.333L759 178.533L829 186L759 193.467L787 218.667L752.467 200L745 270L737.533 200L703 218.667L731 193.467L661 186L731 178.533L703 153.333L737.533 172L745 102Z" fill="#CD7C5B"/>
<path d="M900.92 296V271.728H963.08C974.92 271.728 984.195 268.275 990.904 261.368C997.613 254.264 1000.97 245.779 1000.97 235.912C1000.97 229.203 999.488 223.184 996.528 217.856C993.568 212.331 989.227 207.989 983.504 204.832C977.979 201.675 971.467 200.096 963.968 200.096H900.92V175.824H959.824C969.691 175.824 977.485 173.259 983.208 168.128C989.128 162.8 992.088 155.203 992.088 145.336C992.088 135.469 989.029 127.971 982.912 122.84C976.795 117.512 968.704 114.848 958.64 114.848H900.92V90.576H959.232C972.651 90.576 983.8 93.0427 992.68 97.976C1001.76 102.712 1008.57 109.027 1013.1 116.92C1017.84 124.813 1020.21 133.496 1020.21 142.968C1020.21 154.019 1017.15 163.688 1011.03 171.976C1005.11 180.264 996.331 186.776 984.688 191.512L987.056 182.632C1000.28 187.368 1010.54 194.571 1017.84 204.24C1025.34 213.712 1029.09 224.96 1029.09 237.984C1029.09 248.837 1026.42 258.605 1021.1 267.288C1015.77 275.971 1008.07 282.976 998.008 288.304C988.141 293.435 976.005 296 961.6 296H900.92ZM882.272 296V90.576H910.096V296H882.272ZM1085.34 298.96C1079.82 298.96 1075.18 297.085 1071.43 293.336C1067.88 289.389 1066.1 284.752 1066.1 279.424C1066.1 273.899 1067.88 269.36 1071.43 265.808C1075.18 262.059 1079.82 260.184 1085.34 260.184C1090.87 260.184 1095.41 262.059 1098.96 265.808C1102.71 269.36 1104.58 273.899 1104.58 279.424C1104.58 284.752 1102.71 289.389 1098.96 293.336C1095.41 297.085 1090.87 298.96 1085.34 298.96ZM1170.9 296V270.544H1228.03C1243.22 270.544 1256.54 267.288 1267.99 260.776C1279.43 254.067 1288.31 244.891 1294.63 233.248C1301.14 221.605 1304.39 208.187 1304.39 192.992C1304.39 177.995 1301.14 164.675 1294.63 153.032C1288.11 141.389 1279.13 132.312 1267.69 125.8C1256.24 119.288 1243.02 116.032 1228.03 116.032H1171.19V90.576H1228.62C1243.61 90.576 1257.43 93.1413 1270.06 98.272C1282.88 103.403 1293.93 110.605 1303.21 119.88C1312.68 129.155 1319.98 140.008 1325.11 152.44C1330.44 164.872 1333.11 178.488 1333.11 193.288C1333.11 207.891 1330.44 221.507 1325.11 234.136C1319.98 246.568 1312.78 257.421 1303.51 266.696C1294.23 275.971 1283.18 283.173 1270.35 288.304C1257.72 293.435 1244.01 296 1229.21 296H1170.9ZM1152.55 296V90.576H1180.37V296H1152.55ZM1371.65 296V90.576H1399.48V296H1371.65ZM1390.6 296V270.544H1508.41V296H1390.6ZM1390.6 203.056V178.784H1498.64V203.056H1390.6ZM1390.6 116.032V90.576H1506.93V116.032H1390.6ZM1609.39 296L1527.11 90.576H1557.3L1625.08 264.328H1614.13L1682.51 90.576H1712.4L1629.52 296H1609.39Z" fill="#26261E"/>
<g clip-path="url(#clip2_157_952)">
<path d="M42.92 296V271.728H105.08C116.92 271.728 126.195 268.275 132.904 261.368C139.613 254.264 142.968 245.779 142.968 235.912C142.968 229.203 141.488 223.184 138.528 217.856C135.568 212.331 131.227 207.989 125.504 204.832C119.979 201.675 113.467 200.096 105.968 200.096H42.92V175.824H101.824C111.691 175.824 119.485 173.259 125.208 168.128C131.128 162.8 134.088 155.203 134.088 145.336C134.088 135.469 131.029 127.971 124.912 122.84C118.795 117.512 110.704 114.848 100.64 114.848H42.92V90.576H101.232C114.651 90.576 125.8 93.0427 134.68 97.976C143.757 102.712 150.565 109.027 155.104 116.92C159.84 124.813 162.208 133.496 162.208 142.968C162.208 154.019 159.149 163.688 153.032 171.976C147.112 180.264 138.331 186.776 126.688 191.512L129.056 182.632C142.277 187.368 152.539 194.571 159.84 204.24C167.339 213.712 171.088 224.96 171.088 237.984C171.088 248.837 168.424 258.605 163.096 267.288C157.768 275.971 150.072 282.976 140.008 288.304C130.141 293.435 118.005 296 103.6 296H42.92ZM24.272 296V90.576H52.096V296H24.272Z" fill="#26261E"/>
</g>
</g>
</g>
<defs>
<clipPath id="clip0_157_952">
<rect width="1722" height="373" fill="white"/>
</clipPath>
<clipPath id="clip1_157_952">
<rect width="1722" height="373" fill="white"/>
</clipPath>
<clipPath id="clip2_157_952">
<rect width="185" height="373" fill="white"/>
</clipPath>
</defs>
</svg>
