<svg width="1591" height="379" viewBox="0 0 1591 379" fill="none" xmlns="http://www.w3.org/2000/svg">
<g clip-path="url(#clip0_155_885)">
<g clip-path="url(#clip1_155_885)">
<path d="M17.944 286V93.6H102.008C134.864 93.6 158.248 114.024 158.248 142.736C158.248 162.864 145.816 180.032 125.688 185.952C149.368 191.872 164.76 210.224 164.76 233.904C164.76 264.392 141.672 286 109.112 286H17.944ZM42.808 261.728H104.376C124.504 261.728 139.304 248.704 139.304 230.648C139.304 212.592 124.504 199.568 104.376 199.568H42.808V261.728ZM42.808 175.888H99.64C118.88 175.888 132.792 163.456 132.792 146.584C132.792 129.712 118.88 117.28 99.64 117.28H42.808V175.888ZM202.588 288.368C191.636 288.368 183.644 280.08 183.644 268.832C183.644 257.584 191.636 249.296 202.588 249.296C213.54 249.296 221.532 257.584 221.532 268.832C221.532 280.08 213.54 288.368 202.588 288.368ZM238.166 214.96C265.694 195.72 281.974 159.608 281.974 117.872V93.6H306.838V110.768C306.838 155.76 290.262 194.832 264.214 217.328H332.886V130.896L357.75 126.16V217.328H389.718V241.008H357.75V286H332.886V241.008H238.166V214.96ZM432.409 286V157.536H393.337V134.448H406.361C422.345 134.448 433.593 122.608 433.593 106.032V93.6H457.273V286H432.409ZM517.682 286V157.536H478.61V134.448H491.634C507.618 134.448 518.866 122.608 518.866 106.032V93.6H542.546V286H517.682Z" fill="#F2F1ED"/>
<path d="M695.001 87.8008L704.041 172.551L745.851 149.951L711.951 180.461L796.701 189.501L711.951 198.541L745.851 229.051L704.041 206.451L695.001 291.201L685.961 206.451L644.151 229.051L678.051 198.541L593.301 189.501L678.051 180.461L644.151 149.951L685.961 172.551L695.001 87.8008Z" fill="#CD7C5B"/>
<path d="M846.944 286V93.6H931.008C963.864 93.6 987.248 114.024 987.248 142.736C987.248 162.864 974.816 180.032 954.688 185.952C978.368 191.872 993.76 210.224 993.76 233.904C993.76 264.392 970.672 286 938.112 286H846.944ZM871.808 261.728H933.376C953.504 261.728 968.304 248.704 968.304 230.648C968.304 212.592 953.504 199.568 933.376 199.568H871.808V261.728ZM871.808 175.888H928.64C947.88 175.888 961.792 163.456 961.792 146.584C961.792 129.712 947.88 117.28 928.64 117.28H871.808V175.888ZM1031.59 288.368C1020.64 288.368 1012.64 280.08 1012.64 268.832C1012.64 257.584 1020.64 249.296 1031.59 249.296C1042.54 249.296 1050.53 257.584 1050.53 268.832C1050.53 280.08 1042.54 288.368 1031.59 288.368ZM1081.37 286V93.6H1153.6C1206.58 93.6 1247.13 132.08 1247.13 189.504C1247.13 243.968 1210.73 286 1158.33 286H1081.37ZM1106.24 261.728H1155.97C1193.85 261.728 1221.09 231.536 1221.09 190.096C1221.09 147.768 1192.37 117.28 1152.41 117.28H1106.24V261.728ZM1276.78 286V93.6H1408.2V117.28H1301.64V175.888H1394V199.568H1301.64V261.728H1410.57V286H1276.78ZM1491.63 286L1421.18 93.6H1448.42L1506.43 255.808L1562.67 93.6H1589.31L1520.05 286H1491.63Z" fill="#F2F1ED"/>
</g>
</g>
<defs>
<clipPath id="clip0_155_885">
<rect width="1591" height="379" fill="white"/>
</clipPath>
<clipPath id="clip1_155_885">
<rect width="1592" height="379" fill="white" transform="translate(-1)"/>
</clipPath>
</defs>
</svg>
