<svg width="130" height="75" viewBox="0 0 130 75" fill="none" xmlns="http://www.w3.org/2000/svg">
<g clip-path="url(#clip0_263_214)">
<g clip-path="url(#clip1_263_214)">
<path d="M39.944 74.6507H0.492188V0.900391H38.8542C43.2861 0.900391 47.1003 1.59755 50.2974 2.99182C53.5668 4.38608 56.0735 6.47751 57.8172 9.2661C59.6334 11.9813 60.5417 15.2835 60.5417 19.1729C60.5417 23.3557 59.3429 26.9513 56.9453 29.9602C54.5477 32.8954 50.8423 34.7667 45.8291 35.5741V36.2345C51.4962 37.1883 55.7465 39.2797 58.5801 42.5088C61.4136 45.6641 62.8304 49.5905 62.8304 54.2868C62.8304 58.5429 61.8861 62.2122 59.9968 65.2943C58.1076 68.3032 55.4561 70.6148 52.0411 72.2291C48.6261 73.8433 44.5939 74.6507 39.944 74.6507ZM8.22997 39.7569V67.4958H39.2901C44.4486 67.4958 48.3357 66.3582 50.9513 64.0835C53.6393 61.8088 54.9836 58.2864 54.9836 53.5163C54.9836 48.7462 53.6393 45.2607 50.9513 43.0592C48.2632 40.8577 44.3759 39.7569 39.2901 39.7569H8.22997ZM8.22997 8.05527V33.0423H37.5464C42.5596 33.0423 46.3376 32.0148 48.8806 29.9602C51.4962 27.9057 52.804 24.7867 52.804 20.6038C52.804 16.2742 51.6052 13.1187 49.2075 11.1374C46.8099 9.08266 43.1408 8.05527 38.2003 8.05527H8.22997ZM78.4602 68.4865H68.8697V59.3503H78.4602V68.4865ZM120.248 74.6507H91.8035V67.4958H120.248C126.497 67.4958 131.655 66.432 135.724 64.3037C139.792 62.1022 142.844 58.7999 144.878 54.3969C146.913 49.9939 147.93 44.4533 147.93 37.7756C147.93 31.0241 146.913 25.4839 144.878 21.1542C142.844 16.7512 139.792 13.4857 135.724 11.3575C131.655 9.15603 126.497 8.05527 120.248 8.05527H91.8035V0.900391H120.248C127.586 0.900391 133.907 2.40473 139.211 5.41347C144.588 8.42221 148.729 12.6784 151.635 18.1822C154.614 23.6859 156.103 30.2172 156.103 37.7756C156.103 45.3339 154.614 51.8652 151.635 57.3689C148.729 62.8727 144.588 67.1287 139.211 70.1376C133.907 73.1466 127.586 74.6507 120.248 74.6507ZM96.3808 74.6507H88.534V0.900391H96.3808V74.6507ZM221.907 74.6507H166.435V67.4958H221.907V74.6507ZM220.272 41.0778H166.435V34.033H220.272V41.0778ZM221.907 8.05527H166.435V0.900391H221.907V8.05527Z" fill="#A6A59F"/>
</g>
<g clip-path="url(#clip2_263_214)">
<path d="M72 74.7503H127.472V67.5955H72V74.7503Z" fill="#D97757"/>
<path d="M72 41.1774H125.838V34.1326H72V41.1774Z" fill="#D97757"/>
<path d="M72 8.15488H127.472V1H72V8.15488Z" fill="#D97757"/>
</g>
</g>
<defs>
<clipPath id="clip0_263_214">
<rect width="129.472" height="75" fill="white"/>
</clipPath>
<clipPath id="clip1_263_214">
<rect width="64" height="75" fill="white"/>
</clipPath>
<clipPath id="clip2_263_214">
<rect width="55.4723" height="73.7503" fill="white" transform="translate(74 1)"/>
</clipPath>
</defs>
</svg>
