<svg width="969" height="1257" viewBox="0 0 969 1257" fill="none" xmlns="http://www.w3.org/2000/svg">
<g clip-path="url(#clip0_157_947)">
<g clip-path="url(#clip1_157_947)">
<path d="M63.5 967V317H347.5C458.5 317 537.5 386 537.5 483C537.5 551 495.5 609 427.5 629C507.5 649 559.5 711 559.5 791C559.5 894 481.5 967 371.5 967H63.5ZM147.5 885H355.5C423.5 885 473.5 841 473.5 780C473.5 719 423.5 675 355.5 675H147.5V885ZM147.5 595H339.5C404.5 595 451.5 553 451.5 496C451.5 439 404.5 397 339.5 397H147.5V595Z" fill="#F2F1ED"/>
<path d="M750.5 409.5L769.967 592L860 543.333L787 609.033L969.5 628.5L787 647.967L860 713.667L769.967 665L750.5 847.5L731.033 665L641 713.667L714 647.967L531.5 628.5L714 609.033L641 543.333L731.033 592L750.5 409.5Z" fill="#CD7C5B"/>
</g>
</g>
<defs>
<clipPath id="clip0_157_947">
<rect width="969" height="1257" fill="white"/>
</clipPath>
<clipPath id="clip1_157_947">
<rect width="969" height="1257" fill="white"/>
</clipPath>
</defs>
</svg>
