<svg width="1591" height="379" viewBox="0 0 1591 379" fill="none" xmlns="http://www.w3.org/2000/svg">
<g clip-path="url(#clip0_178_1253)">
<mask id="mask0_178_1253" style="mask-type:luminance" maskUnits="userSpaceOnUse" x="0" y="0" width="1591" height="379">
<path d="M1591 0H0V379H1591V0Z" fill="white"/>
</mask>
<g mask="url(#mask0_178_1253)">
<mask id="mask1_178_1253" style="mask-type:luminance" maskUnits="userSpaceOnUse" x="-1" y="0" width="1592" height="379">
<path d="M1591 0H-1V379H1591V0Z" fill="white"/>
</mask>
<g mask="url(#mask1_178_1253)">
</g>
<g clip-path="url(#clip1_178_1253)">
<path d="M18.1484 286.002V93.6016H102.212C135.068 93.6016 158.452 114.026 158.452 142.738C158.452 162.866 146.02 180.034 125.892 185.954C149.572 191.874 164.964 210.226 164.964 233.906C164.964 264.394 141.876 286.002 109.316 286.002H18.1484ZM43.0124 261.73H104.58C124.708 261.73 139.508 248.706 139.508 230.65C139.508 212.594 124.708 199.57 104.58 199.57H43.0124V261.73ZM43.0124 175.89H99.8444C119.084 175.89 132.996 163.458 132.996 146.586C132.996 129.714 119.084 117.282 99.8444 117.282H43.0124V175.89ZM202.792 288.37C191.84 288.37 183.848 280.082 183.848 268.834C183.848 257.586 191.84 249.298 202.792 249.298C213.744 249.298 221.736 257.586 221.736 268.834C221.736 280.082 213.744 288.37 202.792 288.37ZM238.37 214.962C265.898 195.722 282.178 159.61 282.178 117.874V93.6016H307.042V110.77C307.042 155.762 290.466 194.834 264.418 217.33H333.09V130.898L357.954 126.162V217.33H389.922V241.01H357.954V286.002H333.09V241.01H238.37V214.962ZM432.613 286.002V157.538H393.541V134.45H406.565C422.549 134.45 433.797 122.61 433.797 106.034V93.6016H457.477V286.002H432.613ZM517.886 286.002V157.538H478.814V134.45H491.838C507.822 134.45 519.07 122.61 519.07 106.034V93.6016H542.75V286.002H517.886Z" fill="#26251E"/>
<path d="M694.745 124.992L700.611 179.988L727.743 165.323L705.744 185.121L760.74 190.987L705.744 196.854L727.743 216.652L700.611 201.987L694.745 256.982L688.879 201.987L661.747 216.652L683.746 196.854L628.75 190.987L683.746 185.121L661.747 165.323L688.879 179.988L694.745 124.992Z" fill="#26251E"/>
<path d="M846.742 286.002V93.6016H930.806C963.662 93.6016 987.046 114.026 987.046 142.738C987.046 162.866 974.614 180.034 954.486 185.954C978.166 191.874 993.558 210.226 993.558 233.906C993.558 264.394 970.47 286.002 937.91 286.002H846.742ZM871.606 261.73H933.174C953.302 261.73 968.102 248.706 968.102 230.65C968.102 212.594 953.302 199.57 933.174 199.57H871.606V261.73ZM871.606 175.89H928.438C947.678 175.89 961.59 163.458 961.59 146.586C961.59 129.714 947.678 117.282 928.438 117.282H871.606V175.89ZM1031.39 288.37C1020.44 288.37 1012.44 280.082 1012.44 268.834C1012.44 257.586 1020.44 249.298 1031.39 249.298C1042.34 249.298 1050.33 257.586 1050.33 268.834C1050.33 280.082 1042.34 288.37 1031.39 288.37ZM1081.17 286.002V93.6016H1153.4C1206.38 93.6016 1246.93 132.082 1246.93 189.506C1246.93 243.97 1210.53 286.002 1158.13 286.002H1081.17ZM1106.04 261.73H1155.77C1193.65 261.73 1220.89 231.538 1220.89 190.098C1220.89 147.77 1192.17 117.282 1152.21 117.282H1106.04V261.73ZM1276.58 286.002V93.6016H1408V117.282H1301.44V175.89H1393.8V199.57H1301.44V261.73H1410.37V286.002H1276.58ZM1491.43 286.002L1420.98 93.6016H1448.22L1506.23 255.81L1562.47 93.6016H1589.11L1519.85 286.002H1491.43Z" fill="#26251E"/>
</g>
</g>
</g>
<defs>
<clipPath id="clip0_178_1253">
<rect width="1591" height="379" fill="white"/>
</clipPath>
<clipPath id="clip1_178_1253">
<rect width="1570.96" height="194.768" fill="white" transform="translate(18.1484 93.6016)"/>
</clipPath>
</defs>
</svg>
