<svg width="1591" height="379" viewBox="0 0 1591 379" fill="none" xmlns="http://www.w3.org/2000/svg">
<g clip-path="url(#clip0_178_1518)">
<mask id="mask0_178_1518" style="mask-type:luminance" maskUnits="userSpaceOnUse" x="0" y="0" width="1591" height="379">
<path d="M1591 0H0V379H1591V0Z" fill="white"/>
</mask>
<g mask="url(#mask0_178_1518)">
<mask id="mask1_178_1518" style="mask-type:luminance" maskUnits="userSpaceOnUse" x="-1" y="0" width="1592" height="379">
<path d="M1591 0H-1V379H1591V0Z" fill="white"/>
</mask>
<g mask="url(#mask1_178_1518)">
</g>
<g clip-path="url(#clip1_178_1518)">
<path d="M18.1484 286.002V93.6016H102.212C135.068 93.6016 158.452 114.026 158.452 142.738C158.452 162.866 146.02 180.034 125.892 185.954C149.572 191.874 164.964 210.226 164.964 233.906C164.964 264.394 141.876 286.002 109.316 286.002H18.1484ZM43.0124 261.73H104.58C124.708 261.73 139.508 248.706 139.508 230.65C139.508 212.594 124.708 199.57 104.58 199.57H43.0124V261.73ZM43.0124 175.89H99.8444C119.084 175.89 132.996 163.458 132.996 146.586C132.996 129.714 119.084 117.282 99.8444 117.282H43.0124V175.89Z" fill="#26251E"/>
<path d="M253.995 125L259.861 179.996L286.993 165.33L264.994 185.129L319.99 190.995L264.994 196.861L286.993 216.66L259.861 201.994L253.995 256.99L248.129 201.994L220.997 216.66L242.996 196.861L188 190.995L242.996 185.129L220.997 165.33L248.129 179.996L253.995 125Z" fill="#26251E"/>
</g>
</g>
</g>
<defs>
<clipPath id="clip0_178_1518">
<rect width="1591" height="379" fill="white"/>
</clipPath>
<clipPath id="clip1_178_1518">
<rect width="1570.96" height="194.768" fill="white" transform="translate(18.1484 93.6016)"/>
</clipPath>
</defs>
</svg>
